<?xml version="1.0" encoding="utf-8"?>
<!-- Generator: Adobe Illustrator 19.0.0, SVG Export Plug-In . SVG Version: 6.00 Build 0)  -->
<svg version="1.1" id="Doggy" xmlns="http://www.w3.org/2000/svg" xmlns:xlink="http://www.w3.org/1999/xlink" x="0px" y="0px"
	 viewBox="112.8 16 165.9 34.9" style="enable-background:new 112.8 16 165.9 34.9;" xml:space="preserve">
<style type="text/css">
	.st0{fill:#74CFEB;}
	.st1{font-family:'Kalam-Bold';}
	.st2{font-size:19.8766px;}
	.st3{fill:#EC368D;}
	.st4{fill:#440381;}
	.st5{fill:url(#SVGID_1_);}
	.st6{fill:url(#SVGID_2_);}
	.st7{fill:url(#SVGID_3_);}
	.st8{fill:url(#SVGID_4_);}
	.st9{enable-background:new    ;}
	.st10{fill:url(#SVGID_5_);}
	.st11{fill:url(#SVGID_6_);}
	.st12{fill:url(#SVGID_7_);}
	.st13{fill:url(#SVGID_8_);}
	.st14{fill:url(#MainPaw1_2_);}
	.st15{fill:url(#Paw4_1_);}
	.st16{fill:url(#Paw3_1_);}
	.st17{fill:url(#Paw2_1_);}
	.st18{fill:url(#Paw1_1_);}
	.st19{fill:url(#MainPaw1_3_);}
	.st20{fill:url(#Paw4_3_);}
	.st21{fill:url(#Paw3_3_);}
	.st22{fill:url(#Paw2_3_);}
	.st23{fill:url(#Paw1_3_);}
</style>
<g id="walk-a-dog">
	<g id="XMLID_1_">
		<text transform="matrix(0.9355 0 0 1 119.3262 39.2818)" class="st0 st1 st2">walk</text>
		<g>
			<path class="st3" d="M128.1,45.9c-0.9,0-1.8-0.2-2.7-0.6c-0.8,0.3-1.7,0.6-2.7,0.6c-1.5,0-3.1-0.5-4.5-1.6c-1.4-1-2.4-2.3-3-3.9
				c-0.5-1.3-0.8-3-1.2-5.8c-0.4-3.1-0.4-4.3-0.4-5c0-4.3,3.1-7.7,7-7.7c0.6,0,1.7,0.1,2.7,0.5c1.1-0.5,2.1-0.5,2.6-0.5
				c0.7,0,1.6,0.1,2.6,0.4c0.7-0.3,1.5-0.4,2.4-0.4c1.5,0,2.9,0.4,4.3,1.3c2.4,1.5,3.9,4.1,3.9,6.8c0,1-0.2,2.1-0.9,4.7
				c-0.6,2.4-1.7,4.7-3.1,6.6C134.3,42.6,132,45.9,128.1,45.9z"/>
			<path class="st3" d="M139.7,46c-0.5,0-1.2-0.1-1.9-0.3c-0.6,0.2-1.4,0.3-2.2,0.3c-1.5,0-3.9-0.5-6.2-2.9
				c-2.4-2.5-2.9-5.1-2.9-6.9c0-1.7,0.5-3.5,1.5-5.7c0.8-1.8,2-3.5,3.4-5.1c2.7-2.9,5.5-3.5,7.4-3.5c2.2,0,4.2,1,6.1,2.8
				c2.7,2.5,3.2,5.2,3.2,6.9c0,0.7-0.1,1.4-0.2,2.2c0,0.1,0,0.2,0,0.3c0,1.1-0.2,2.1-0.5,3c-0.1,0.3-0.1,0.4-0.2,0.5
				c-0.1,0.3-0.2,0.9-0.2,0.9c0,0.2-0.1,0.5-0.2,0.9l-0.1,0.4c0,0.2-0.1,0.3-0.2,0.7c-0.2,0.8-0.6,1.6-1,2.2
				c-0.1,0.2-0.2,0.3-0.4,0.6C143.9,45,141.8,46,139.7,46z"/>
			<path class="st3" d="M144.1,46c-1.5,0-3.7-0.5-5.8-2.9c-1.5-1.8-2.3-3.7-2.3-5.8c0-1,0.1-1.1,0.7-3.8c0.3-1.1,0.6-2.7,0.9-4.6
				c0.2-1.7,0.4-3.4,0.4-4.9c0-4.2,3.1-7.5,7-7.5c2.3,0,4.3,1.1,6.1,3.3c1.9,2.3,2.3,4.7,2.3,6.2c0,0.9-0.1,2-0.2,3.6
				c-0.2,1.6-0.3,2.9-0.6,3.9v0.1C151.1,40.1,149.8,46,144.1,46z"/>
			<path class="st3" d="M154.9,46c-1.1,0-2.1-0.3-3.1-0.6c-0.8,0.3-1.7,0.6-2.7,0.6c-1.5,0-3.7-0.5-5.8-2.9
				c-1.5-1.8-2.3-3.8-2.3-5.9c0-1.1,0.2-1.7,0.9-4.3c0.4-1.3,0.7-2.9,1.1-4.8c0.3-1.6,0.5-3,0.5-4.1c0-4.2,3.1-7.5,7-7.5
				c2.2,0,4.2,1,6,3.1c1,1.1,1.5,2.2,1.9,3.2c0.9,0.4,1.8,1.1,2.6,2.2c1.9,2.2,2.2,4.3,2.2,5.8c0,1.9-0.7,3.4-1.5,4.4
				c0.6,1.3,0.7,2.4,0.7,3.2C162.4,42.6,159.1,46,154.9,46z"/>
		</g>
		<g>
			<path class="st4" d="M128.1,44.2c-1.1,0-2-0.3-2.7-0.8c-0.7,0.4-1.6,0.8-2.7,0.8c-1.2,0-2.4-0.4-3.6-1.3
				c-1.1-0.9-1.9-1.9-2.4-3.1c-0.4-1.1-0.8-2.8-1.1-5.4c-0.3-2.3-0.4-3.8-0.4-4.8c0-3.5,2.3-6,5.3-6c0.8,0,1.8,0.2,2.7,0.7
				c1.1-0.6,2-0.7,2.6-0.7c0.7,0,1.6,0.1,2.7,0.6c0.6-0.3,1.5-0.6,2.3-0.6c1.2,0,2.3,0.3,3.6,1c2.7,1.7,3.1,4.2,3.1,5.3
				c0,0.8-0.1,1.6-0.8,4.2c-0.6,2.2-1.5,4.2-2.7,6C133,41.5,131.2,44.2,128.1,44.2z"/>
			<path class="st4" d="M139.7,44.3c-0.6,0-1.2-0.1-1.9-0.4c-0.7,0.3-1.5,0.4-2.2,0.4c-1.8,0-3.6-0.8-5.1-2.3
				c-2-2.1-2.4-4.2-2.4-5.6c0-1.5,0.4-3,1.3-5c0.7-1.6,1.8-3.2,3.1-4.6c2.3-2.5,4.6-3,6.1-3c1.8,0,3.5,0.8,5,2.2
				c1.8,1.6,2.7,3.5,2.7,5.6c0,0.7-0.1,1.3-0.2,2c0,0.2,0,0.3,0,0.4c0,0.9-0.2,1.6-0.4,2.5c-0.2,0.5-0.2,0.7-0.2,0.7
				c-0.1,0.3-0.2,1-0.2,1c0,0.2-0.1,0.4-0.2,0.8l-0.1,0.4c0,0.2-0.1,0.3-0.2,0.6c-0.2,0.6-0.4,1.2-0.7,1.7c-0.1,0.2-0.2,0.3-0.3,0.5
				C142.9,43.5,141.4,44.3,139.7,44.3z"/>
			<path class="st4" d="M144.1,44.3c-1.7,0-3.2-0.8-4.6-2.4c-1.2-1.5-1.9-3-1.9-4.7c0-0.7,0-0.7,0.6-3.4c0.3-1.2,0.6-2.8,0.9-4.8
				c0.3-1.8,0.4-3.5,0.4-5.2c0-3.2,2.3-5.8,5.4-5.8c1.8,0,3.4,0.9,4.9,2.7c1.5,1.9,1.9,3.8,1.9,5.1c0,0.8-0.1,1.8-0.2,3.5
				c-0.2,1.6-0.3,2.8-0.6,3.7C149.5,39.8,148.6,44.3,144.1,44.3z"/>
			<path class="st4" d="M154.9,44.3c-1.1,0-2.2-0.3-3.1-0.8c-0.8,0.5-1.7,0.8-2.7,0.8c-1.7,0-3.2-0.8-4.6-2.4
				c-0.5-0.5-1.9-2.2-1.9-4.7c0-0.9,0.2-1.3,0.8-3.8c0.4-1.4,0.7-3,1.1-5c0.3-1.7,0.5-3.3,0.5-4.5c0-3.3,2.3-5.8,5.3-5.8
				c2.6,0,4.2,1.9,4.8,2.6c1,1.2,1.5,2.3,1.8,3.4c0.9,0.3,1.8,1,2.7,2.1c1.2,1.4,1.8,2.9,1.8,4.6c0,2-1,3.4-1.9,4.2
				c0.9,1.2,1.1,2.5,1.1,3.5C160.8,41.7,158.3,44.3,154.9,44.3z"/>
		</g>
		<g>
			
				<linearGradient id="SVGID_1_" gradientUnits="userSpaceOnUse" x1="126.3636" y1="30.7578" x2="126.3636" y2="46.5788" gradientTransform="matrix(1 0 0 -1 0 69.8)">
				<stop  offset="0" style="stop-color:#51E5FF"/>
				<stop  offset="1" style="stop-color:#5139FF"/>
			</linearGradient>
			<path class="st5" d="M130.9,28.8c0.3,0,0.7,0.1,1.1,0.3c0.4,0.3,0.6,0.5,0.6,0.8s-0.2,1.2-0.6,2.9c-0.4,1.6-1.1,3-1.9,4.3
				c-0.9,1.3-1.5,1.9-2,1.9c-0.2,0-0.4-0.2-0.8-0.4c-0.3-0.3-0.6-0.6-0.7-0.9c-0.2-0.5-0.4-2.2-0.4-4.8c-0.6,1.8-1.1,3.4-1.9,4.4
				c-0.6,1.1-1.2,1.6-1.6,1.6c-0.2,0-0.5-0.2-0.8-0.4c-0.3-0.3-0.6-0.5-0.6-0.8c-0.2-0.7-0.6-2.1-0.8-4.1c-0.2-2-0.4-3.4-0.4-4.1
				c0-0.5,0.2-0.8,0.5-0.8c0.5,0,1,0.3,1.5,1c0.5,0.6,0.7,1.1,0.7,1.5c0,1.9,0,3.5,0.1,4.6c0.5-0.8,1-1.8,1.4-3
				c0.4-1.2,0.7-2.2,1-2.9c0.2-0.7,0.5-1,0.8-1c0.6,0,1.1,0.3,1.6,0.9c0.6,0.6,0.8,1.1,0.8,1.7c0,0.3-0.1,0.8-0.2,1.6
				c-0.1,0.9-0.1,1.5-0.1,1.9c0,0.4,0,0.8,0.1,1c0.4-0.4,0.7-1,1.1-1.9s0.5-1.6,0.6-2.4C130.3,29.7,130.6,28.8,130.9,28.8z"/>
			
				<linearGradient id="SVGID_2_" gradientUnits="userSpaceOnUse" x1="137.156" y1="30.7578" x2="137.156" y2="46.5788" gradientTransform="matrix(1 0 0 -1 0 69.8)">
				<stop  offset="0" style="stop-color:#51E5FF"/>
				<stop  offset="1" style="stop-color:#5139FF"/>
			</linearGradient>
			<path class="st6" d="M140.9,33.4c0.2,0.2,0.3,0.4,0.3,0.6c0,0.2-0.1,0.5-0.2,1c-0.2,0.5-0.2,1-0.3,1.3c-0.1,0.3-0.1,0.5-0.1,0.7
				c0,0.2-0.1,0.3-0.1,0.4s0,0.3-0.1,0.3c0,0.2-0.1,0.3-0.1,0.3c0,0.1-0.1,0.2-0.1,0.3c0,0.1-0.1,0.2-0.1,0.3c0,0.1-0.1,0.1-0.2,0.2
				c-0.1,0.1-0.2,0.2-0.4,0.2s-0.4-0.2-0.6-0.5c-0.2-0.3-0.4-0.9-0.6-1.4c-1.1,1.3-2.2,1.9-2.9,1.9c-0.6,0-1.1-0.3-1.7-1
				c-0.6-0.6-0.9-1.3-0.9-1.9s0.2-1.6,0.8-2.7c0.6-1.1,1.3-2.2,2.2-3.2c0.9-1,1.9-1.5,2.7-1.5c0.5,0,1.1,0.3,1.8,1
				c0.6,0.7,1.1,1.2,1.1,1.8C141.4,32.1,141.3,32.7,140.9,33.4z M135.5,36.6c0.5,0,1.1-0.3,1.9-1.1c0.8-0.7,1.4-1.6,1.5-2.8
				c0-0.2,0.1-0.3,0.3-0.3c0-0.8-0.2-1.1-0.3-1.1c-0.5,0-1.1,0.3-1.7,1c-0.6,0.7-1.1,1.4-1.5,2.2c-0.4,0.8-0.6,1.4-0.6,1.7
				c0,0.1,0,0.2,0.1,0.2C135.3,36.5,135.4,36.6,135.5,36.6z"/>
			
				<linearGradient id="SVGID_3_" gradientUnits="userSpaceOnUse" x1="144.6744" y1="30.7578" x2="144.6744" y2="46.5788" gradientTransform="matrix(1 0 0 -1 0 69.8)">
				<stop  offset="0" style="stop-color:#51E5FF"/>
				<stop  offset="1" style="stop-color:#5139FF"/>
			</linearGradient>
			<path class="st7" d="M146.2,24.1c0.5,0.6,0.7,1.1,0.7,1.6s-0.1,1.5-0.2,2.9c-0.2,1.4-0.3,2.4-0.5,3.3c-1.1,4.8-1.8,7.2-2.2,7.2
				c-0.2,0-0.6-0.3-1.1-0.7c-0.4-0.4-0.6-0.9-0.6-1.1c0,0,0.2-0.7,0.5-2.1c0.3-1.4,0.6-3.1,1.1-5.2c0.4-2.1,0.5-4.1,0.5-6
				c0-0.3,0.2-0.6,0.6-0.6C145.4,23.3,145.8,23.5,146.2,24.1z"/>
			
				<linearGradient id="SVGID_4_" gradientUnits="userSpaceOnUse" x1="152.0716" y1="30.7578" x2="152.0716" y2="46.5788" gradientTransform="matrix(1 0 0 -1 0 69.8)">
				<stop  offset="0" style="stop-color:#51E5FF"/>
				<stop  offset="1" style="stop-color:#5139FF"/>
			</linearGradient>
			<path class="st8" d="M149.1,39.1c-0.3,0-0.6-0.3-1.1-0.8c-0.4-0.5-0.6-0.9-0.6-1.2c0-0.1,0.2-0.9,0.6-2.3
				c0.4-1.5,0.8-3.3,1.2-5.4c0.4-2.1,0.6-4,0.6-5.5c0-0.4,0.2-0.6,0.5-0.6c0.3,0,0.7,0.3,1.2,0.9s0.7,1.1,0.7,1.6
				c0,0.7-0.2,2.1-0.7,4.1c-0.5,2-1,3.6-1.5,4.8c0.2-0.3,0.4-0.5,0.6-0.9c0.2-0.3,0.5-0.7,0.6-1c0.2-0.3,0.4-0.5,0.6-0.9
				c0.2-0.3,0.5-0.6,0.6-0.9c0.2-0.3,0.4-0.4,0.6-0.8c0.2-0.3,0.4-0.5,0.6-0.7c0.2-0.2,0.3-0.3,0.5-0.4c0.3-0.3,0.6-0.4,0.7-0.4
				c0.3,0,0.6,0.3,1.1,0.7c0.4,0.4,0.6,0.9,0.6,1.1c0,0.2-0.2,0.4-0.8,1c-0.6,0.5-1.1,1-1.6,1.6c-0.6,0.6-0.8,1.1-0.8,1.6
				s0.2,0.9,0.4,1.3c0.2,0.4,0.6,0.8,0.8,1c0.2,0.2,0.6,0.4,0.8,0.7c0.2,0.3,0.4,0.4,0.4,0.6c0,0.5-0.3,0.8-1,0.8
				c-0.8,0-1.8-0.7-3.1-2.1l-0.5-0.5C150.3,38.2,149.5,39.1,149.1,39.1z"/>
		</g>
	</g>
	<g id="XMLID_3_" class="st9">
		<text transform="matrix(0.9355 0 0 1 245.5098 38.9176)" class="st0 st1 st2">dog</text>
		<g>
			<path class="st3" d="M252.2,45.6c-0.6,0-1.2-0.1-1.9-0.3c-0.6,0.2-1.3,0.3-2,0.3c-2.4,0-4.7-1.2-6.5-3.3
				c-1.9-2.4-2.3-4.7-2.3-6.2c0-1,0.1-2.1,0.3-3.2c0.2-1,0.6-2.1,1-3.1s0.9-2,1.4-2.9c0.8-1.4,1.8-2.5,2.9-3.4
				c0.6-0.4,1.2-0.9,1.9-1.1c0.5-3.6,3.4-6.3,7-6.3c2.2,0,4.2,1,6,3.2c1.9,2.3,2.3,4.7,2.3,6.2c0,1-0.1,1.7-0.8,4.8
				c-0.4,1.8-0.6,2.9-0.7,3.3C259.3,39.7,258,45.6,252.2,45.6z"/>
			<path class="st3" d="M258.4,45.6c-2.7,0-5-1.2-6.8-3.5c-1.5-1.9-2.2-4.2-2.2-6.7c0-3.1,0.9-6,2.6-8.6c2.7-4.3,6-5.2,8.2-5.2
				c2.7,0,5.2,1.1,7,3.2c1.9,2,2.8,4.6,2.8,7.3c0,2-0.4,4-1.3,6c-0.9,2-2.1,3.7-3.7,5.1C263.1,44.7,260.8,45.6,258.4,45.6z"/>
			<path class="st3" d="M266.8,51c-2.3,0-4.5-0.9-6.4-2.5c-2.7-2.4-3.3-5.1-3.3-6.8c0-1.5,0.3-2.9,1-4.1c-0.1-0.6-0.2-1.1-0.2-1.6
				c0-1.4,0.2-2.8,0.8-4.4c0.4-1.2,0.9-2.4,1.5-3.5c0.8-1.6,1.9-2.9,3.2-4.1c2.3-2.1,4.6-2.5,6.1-2.5c1.8,0,3.5,0.6,4.9,1.6
				c1.4,1,2.4,2.4,3,4.1c0.5,1.3,0.7,2.7,0.8,4.1c0.2,0.7,0.2,1.4,0.2,2.2c0,1.4-0.3,2.7-1,4.1c-0.1,0.3-0.2,0.8-0.4,1.6
				c-0.3,1.5-0.6,2.7-0.9,3.6c-0.3,1.1-0.7,2.1-1.2,2.9c-0.7,1.5-1.8,2.7-3.1,3.5C270.5,50.4,268.7,51,266.8,51z"/>
		</g>
		<g>
			<path class="st4" d="M252.2,43.8c-0.6,0-1.2-0.1-1.9-0.3c-0.6,0.3-1.3,0.3-2,0.3c-1.9,0-3.8-1-5.3-2.7c-1.3-1.6-1.9-3.3-1.9-5.1
				c0-0.9,0.1-1.8,0.3-2.9c0.2-1,0.5-1.9,0.9-2.9c0.4-1,0.8-1.8,1.3-2.7c0.6-1.1,1.5-2.2,2.5-2.9c0.8-0.6,1.6-1,2.5-1.3v-0.1
				c0-3.3,2.3-5.8,5.4-5.8c2.6,0,4.3,2,4.8,2.6c1.6,1.9,1.9,3.8,1.9,5.1c0,0.7-0.1,1.3-0.8,4.4c-0.4,1.8-0.6,2.9-0.7,3.3
				C257.8,39.1,256.7,43.8,252.2,43.8z"/>
			<path class="st4" d="M258.4,43.8c-2.2,0-4.1-1-5.5-2.9c-1.2-1.6-1.9-3.5-1.9-5.6c0-2.8,0.8-5.3,2.3-7.7c2.4-3.7,5-4.5,6.9-4.5
				c2.3,0,4.3,1,5.8,2.6s2.3,3.8,2.3,6.1c0,1.7-0.4,3.5-1.1,5.2c-0.7,1.7-1.9,3.3-3.2,4.5C262.4,43.1,260.4,43.8,258.4,43.8z"/>
			<path class="st4" d="M266.8,49.3c-1.9,0-3.8-0.7-5.3-2.1c-1.9-1.6-2.7-3.5-2.7-5.5c0-1.4,0.3-2.7,1.1-3.9
				c-0.2-0.7-0.2-1.3-0.2-1.8c0-1.1,0.2-2.4,0.7-3.8c0.4-1.1,0.8-2.2,1.5-3.3c0.7-1.4,1.7-2.6,2.8-3.5c1.9-1.7,3.9-2.1,5.1-2.1
				c1.5,0,2.8,0.4,4,1.3c1.1,0.9,1.9,2,2.4,3.4c0.4,1.2,0.6,2.4,0.7,3.8c0.2,0.6,0.2,1.2,0.2,1.8c0,1.1-0.2,2.2-0.8,3.4
				c-0.2,0.3-0.3,1-0.5,1.8c-0.2,1.4-0.6,2.5-0.9,3.5c-0.3,1-0.7,1.9-1.1,2.7c-0.6,1.2-1.5,2.2-2.6,3
				C269.8,48.8,268.4,49.3,266.8,49.3z"/>
		</g>
		<g>
			
				<linearGradient id="SVGID_5_" gradientUnits="userSpaceOnUse" x1="250.7805" y1="25.7377" x2="250.7805" y2="46.946" gradientTransform="matrix(1 0 0 -1 0 69.8)">
				<stop  offset="0" style="stop-color:#51E5FF"/>
				<stop  offset="1" style="stop-color:#5139FF"/>
			</linearGradient>
			<path class="st10" d="M253.9,22.8c0.3,0,0.7,0.3,1.1,0.9c0.5,0.6,0.7,1.1,0.7,1.6c0,0.3-0.2,1.3-0.6,3.1
				c-0.4,1.8-0.7,2.9-0.8,3.4c-1,4.6-1.7,6.8-2.2,6.8c-0.2,0-0.6-0.2-0.9-0.5c-0.3-0.3-0.5-0.7-0.5-1c0-0.1,0-0.1,0-0.2
				c-1.2,1.1-2.1,1.6-2.7,1.6c-0.6,0-1.1-0.3-1.5-1s-0.7-1.2-0.7-1.6c0-0.5,0.1-1,0.2-1.6c0.2-0.6,0.3-1.3,0.6-2
				c0.2-0.7,0.6-1.3,1-1.9c0.3-0.6,0.8-1.1,1.3-1.5c0.5-0.4,1.1-0.6,1.5-0.6c0.8,0,1.5,0.4,1.9,1.3c0.6-3.1,1-5.2,1-6.2
				C253.4,23.1,253.6,22.8,253.9,22.8z M248.4,36.1c0.3,0,0.8-0.3,1.5-0.9c0.7-0.6,1.3-1.3,1.6-2.2c0-0.1,0-0.3,0-0.7
				s-0.1-0.7-0.3-1s-0.4-0.5-0.6-0.5c-0.4,0-0.7,0.2-1.1,0.6c-0.3,0.4-0.6,1-0.8,1.5c-0.4,1.2-0.6,2.2-0.6,2.8c0,0.1,0,0.2,0.1,0.2
				C248.2,36.1,248.3,36.1,248.4,36.1z"/>
			
				<linearGradient id="SVGID_6_" gradientUnits="userSpaceOnUse" x1="259.7137" y1="25.7377" x2="259.7137" y2="46.946" gradientTransform="matrix(1 0 0 -1 0 69.8)">
				<stop  offset="0" style="stop-color:#51E5FF"/>
				<stop  offset="1" style="stop-color:#5139FF"/>
			</linearGradient>
			<path class="st11" d="M257.4,30.6c1-1.5,1.9-2.2,2.8-2.2c1,0,1.7,0.3,2.3,1c0.6,0.7,1,1.6,1,2.6s-0.2,2-0.6,3
				c-0.5,1-1.1,1.9-1.9,2.6c-0.8,0.7-1.7,1-2.6,1c-0.6,0-1.3-0.3-1.8-1c-0.5-0.7-0.7-1.5-0.7-2.3C255.9,33.7,256.4,32.1,257.4,30.6z
				 M260.4,34.8c0.5-1,0.7-1.9,0.7-2.8c0-0.9-0.1-1.5-0.3-1.7c-0.6,0.3-1.1,1-1.6,2.1c-0.6,1-0.8,2-0.8,2.8c0,0.8,0.1,1.3,0.2,1.6
				C259.3,36.3,259.9,35.7,260.4,34.8z"/>
			
				<linearGradient id="SVGID_7_" gradientUnits="userSpaceOnUse" x1="267.7979" y1="25.7377" x2="267.7979" y2="46.946" gradientTransform="matrix(1 0 0 -1 0 69.8)">
				<stop  offset="0" style="stop-color:#51E5FF"/>
				<stop  offset="1" style="stop-color:#5139FF"/>
			</linearGradient>
			<path class="st12" d="M271.8,32.7c0.2,0.3,0.2,0.5,0.2,0.8c0,0.3-0.2,0.7-0.4,1.2c-0.3,0.8-0.6,1.8-0.8,2.9
				c-0.2,1.2-0.5,2.2-0.7,2.9s-0.5,1.3-0.7,1.8c-0.2,0.5-0.6,1-1.1,1.2c-0.5,0.3-1,0.5-1.6,0.5c-0.8,0-1.5-0.3-2.3-0.9
				c-0.6-0.6-1-1.1-1-1.5c0-0.4,0.1-0.8,0.3-1.1c0.2-0.3,0.4-0.5,0.6-0.5s0.3,0.1,0.5,0.3c0.2,0.3,0.3,0.4,0.5,0.7
				c0.2,0.3,0.3,0.4,0.6,0.7c0.2,0.3,0.5,0.3,0.8,0.3s0.6-0.2,0.8-0.6c0.2-0.4,0.4-0.9,0.6-1.3c0.3-1.1,0.5-1.9,0.6-2.3
				c-0.8,0.5-1.5,0.9-2,0.9c-0.6,0-1.1-0.3-1.5-1s-0.7-1.2-0.7-1.7s0.2-1.2,0.4-2.1c0.2-0.9,0.6-1.6,1.1-2.5c0.4-0.9,1-1.6,1.7-2.2
				c0.6-0.6,1.4-0.9,2-0.9c0.5,0,0.8,0.1,1.1,0.3s0.6,0.6,0.7,1c0.2,0.7,0.4,1.6,0.4,2.4C271.8,32.3,271.8,32.5,271.8,32.7z
				 M266.7,35.9c0,0.2,0.1,0.3,0.2,0.3c0.3,0,1-0.3,1.8-1c0.8-0.7,1.4-1.4,1.6-2.1v-0.3c0-0.9-0.1-1.4-0.2-1.6
				c-0.1-0.1-0.2-0.2-0.3-0.2c-0.6,0-1.2,0.7-1.9,2C267,34.3,266.7,35.3,266.7,35.9z"/>
		</g>
	</g>
	<g id="XMLID_107_">
		<text transform="matrix(0.9355 0 0 1 196.7578 38.816)" class="st0 st1 st2">a</text>
		<g>
			<path class="st3" d="M203.9,45.5c-0.5,0-1.2-0.1-1.9-0.3c-0.6,0.2-1.4,0.3-2.2,0.3c-1.5,0-3.9-0.5-6.2-2.9
				c-2.4-2.5-2.9-5.1-2.9-6.9c0-1.7,0.5-3.5,1.5-5.7c0.8-1.8,2-3.5,3.4-5.1c2.7-2.9,5.5-3.5,7.4-3.5c2.2,0,4.2,1,6.1,2.8
				c2.7,2.5,3.2,5.2,3.2,6.9c0,0.7-0.1,1.4-0.2,2.2c0,0.1,0,0.2,0,0.3c0,1.1-0.2,2.1-0.5,3c-0.1,0.3-0.1,0.4-0.2,0.5
				c-0.1,0.3-0.2,0.9-0.2,0.9c0,0.2-0.1,0.5-0.2,0.9l-0.1,0.4c0,0.2-0.1,0.3-0.2,0.7c-0.2,0.8-0.6,1.6-1,2.2
				c-0.1,0.2-0.2,0.3-0.4,0.6C208.1,44.5,206.1,45.5,203.9,45.5z"/>
		</g>
		<g>
			<path class="st4" d="M203.9,43.8c-0.6,0-1.2-0.1-1.9-0.4c-0.7,0.3-1.5,0.4-2.2,0.4c-1.8,0-3.6-0.8-5.1-2.3
				c-2-2.1-2.4-4.2-2.4-5.6c0-1.5,0.4-3,1.3-5c0.7-1.6,1.8-3.2,3.1-4.6c2.3-2.5,4.6-3,6.1-3c1.8,0,3.5,0.8,5,2.2
				c1.8,1.6,2.7,3.5,2.7,5.6c0,0.7-0.1,1.3-0.2,2c0,0.2,0,0.3,0,0.4c0,0.9-0.2,1.6-0.4,2.5c-0.2,0.5-0.2,0.7-0.2,0.7
				c-0.1,0.3-0.2,1-0.2,1c0,0.2-0.1,0.4-0.2,0.8l-0.1,0.4c0,0.2-0.1,0.3-0.2,0.6c-0.2,0.6-0.4,1.2-0.7,1.7c-0.1,0.2-0.2,0.3-0.3,0.5
				C207.2,43,205.6,43.8,203.9,43.8z"/>
		</g>
		<g>
			
				<linearGradient id="SVGID_8_" gradientUnits="userSpaceOnUse" x1="201.426" y1="31.2253" x2="201.426" y2="41.4809" gradientTransform="matrix(1 0 0 -1 0 69.8)">
				<stop  offset="0" style="stop-color:#51E5FF"/>
				<stop  offset="1" style="stop-color:#5139FF"/>
			</linearGradient>
			<path class="st13" d="M205.1,32.9c0.2,0.2,0.3,0.4,0.3,0.6s-0.1,0.5-0.2,1s-0.2,1-0.3,1.3c-0.1,0.3-0.1,0.5-0.1,0.7
				c0,0.2-0.1,0.3-0.1,0.4c0,0.1,0,0.3-0.1,0.3c0,0.2-0.1,0.3-0.1,0.3s-0.1,0.2-0.1,0.3c0,0.1-0.1,0.2-0.1,0.3
				c0,0.1-0.1,0.1-0.2,0.2s-0.2,0.2-0.4,0.2c-0.2,0-0.4-0.2-0.6-0.5c-0.2-0.3-0.4-0.9-0.6-1.4c-1.1,1.3-2.2,1.9-2.9,1.9
				c-0.6,0-1.1-0.3-1.7-1c-0.6-0.6-0.9-1.3-0.9-1.9s0.2-1.6,0.8-2.7c0.6-1.1,1.3-2.2,2.2-3.2c0.9-1,1.9-1.5,2.7-1.5
				c0.5,0,1.1,0.3,1.8,1c0.6,0.7,1.1,1.2,1.1,1.8C205.7,31.6,205.5,32.2,205.1,32.9z M199.7,36.1c0.5,0,1.1-0.3,1.9-1.1
				c0.8-0.7,1.4-1.6,1.5-2.8c0-0.2,0.1-0.3,0.3-0.3c0-0.8-0.2-1.1-0.3-1.1c-0.5,0-1.1,0.3-1.7,1c-0.6,0.7-1.1,1.4-1.5,2.2
				c-0.4,0.8-0.6,1.4-0.6,1.7c0,0.1,0,0.2,0.1,0.2C199.6,36,199.6,36.1,199.7,36.1z"/>
		</g>
	</g>
</g>
<g id="left-paw">
	<g>
		<g>
			<g id="MainPaw1_16_">
				<path class="st3" d="M174.4,45.9c-2.5,0-5.7-1.6-6.9-5.9c-0.6-2.5-0.4-5.1,0.6-7.6l0.1-0.3c1.3-2.8,3.5-4.8,6-5.4
					c0.7-0.3,1.5-0.3,2.3-0.3c2,0,4,0.7,5.7,2c1.9,1.5,3.3,3.5,4,6l0.1,0.2c0.9,3.5-0.3,5.8-1.1,6.9c-1,1.4-2.8,2.9-6,2.9
					c-0.2,0-0.3,0-0.6,0C178,45,176.5,45.9,174.4,45.9z"/>
			</g>
			<g id="Paw4_16_">
				<path class="st3" d="M172.9,42.6c-2.7,0-5.3-1.6-6.8-4.2c-0.9-1.6-1.4-3.4-1.3-5.1c0.1-2.7,1.4-5,3.5-6.4
					c1.1-0.8,2.4-1.1,3.8-1.1c2.7,0,5.3,1.6,6.8,4.2c2.3,4.1,1.4,9.2-2.2,11.5C175.5,42.3,174.3,42.6,172.9,42.6z"/>
			</g>
			<g id="Paw3_16_">
				<path class="st3" d="M174.9,40.4c-2.7,0-5.3-1.6-6.8-4.2c-2.3-4.1-1.4-9.2,2.2-11.5c1.1-0.8,2.5-1.1,3.8-1.1
					c2.7,0,5.3,1.6,6.8,4.2c2.3,4.1,1.4,9.2-2.2,11.5C177.6,39.9,176.3,40.4,174.9,40.4z"/>
			</g>
			<g id="Paw2_16_">
				<path class="st3" d="M177.3,39.8c-3.9,0-7.1-3.3-7.6-7.7c-0.5-4.8,2.4-8.9,6.6-9.3h0.3h0.4c3.9,0,7.1,3.3,7.6,7.7
					c0.5,4.8-2.4,8.9-6.6,9.3h-0.3H177.3z"/>
			</g>
			<g id="Paw1_16_">
				<path class="st3" d="M179.9,41.1c-0.4,0-0.7,0-1.1-0.1c-4.2-0.7-6.9-4.9-6.2-9.7c0.6-4.2,3.8-7.3,7.5-7.3c0.4,0,0.7,0,1.1,0.1
					c4.2,0.7,6.9,4.9,6.2,9.7C186.8,38,183.6,41.1,179.9,41.1z"/>
			</g>
		</g>
	</g>
	<g>
		<g>
			<g id="MainPaw1_17_">
				<path class="st4" d="M174.4,44.2c-1.9,0-4.4-1.2-5.3-4.7c-0.6-2.1-0.3-4.3,0.6-6.5l0.1-0.2c1.1-2.3,2.8-4,5-4.6
					c0.6-0.2,1.3-0.3,1.9-0.3c1.7,0,3.3,0.6,4.9,1.7c1.6,1.2,2.8,2.9,3.4,5v0.1c0.7,2.7-0.2,4.6-0.9,5.4c-0.7,1-2.2,2.3-4.7,2.3
					c-0.2,0-0.4,0-0.6,0c-0.1,0-0.2,0-0.4,0c-0.1,0.1-0.2,0.2-0.3,0.2C177.3,43.3,176.1,44.2,174.4,44.2z"/>
			</g>
			<g id="Paw4_17_">
				<path class="st4" d="M172.9,40.9c-2.1,0-4.2-1.3-5.4-3.4c-0.7-1.3-1.1-2.7-1.1-4.1c0.1-2.1,1.1-4,2.7-5c0.9-0.6,1.9-0.9,3-0.9
					c2.1,0,4.2,1.3,5.4,3.4c1.9,3.3,1.1,7.3-1.6,9.2C175,40.6,173.9,40.9,172.9,40.9z"/>
			</g>
			<g id="Paw3_17_">
				<path class="st4" d="M174.9,38.6c-2.1,0-4.2-1.3-5.4-3.4c-1.9-3.3-1.1-7.3,1.6-9.2c0.9-0.6,1.9-0.9,3-0.9c2.1,0,4.2,1.3,5.4,3.4
					c1.9,3.3,1.1,7.3-1.6,9.2C177,38.3,176,38.6,174.9,38.6z"/>
			</g>
			<g id="Paw2_17_">
				<path class="st4" d="M177.3,38c-3.1,0-5.6-2.7-6-6.1c-0.4-3.8,1.9-7.1,5.2-7.4h0.2h0.3c3.1,0,5.6,2.7,6,6.1
					c0.4,3.8-1.9,7.1-5.2,7.4h-0.2H177.3z"/>
			</g>
			<g id="Paw1_17_">
				<path class="st4" d="M179.9,39.3c-0.3,0-0.6,0-0.9-0.1c-3.2-0.5-5.4-3.9-4.9-7.7c0.5-3.4,3-5.9,6-5.9c0.3,0,0.6,0,0.9,0.1
					c3.2,0.5,5.4,3.9,4.9,7.7C185.3,36.9,182.8,39.3,179.9,39.3z"/>
			</g>
		</g>
	</g>
	<g>
		
			<linearGradient id="MainPaw1_2_" gradientUnits="userSpaceOnUse" x1="176.9858" y1="30.7924" x2="176.9858" y2="36.5256" gradientTransform="matrix(1 0 0 -1 0 69.8)">
			<stop  offset="0" style="stop-color:#FFD6C0"/>
			<stop  offset="1" style="stop-color:#FFA5A5"/>
		</linearGradient>
		<path id="MainPaw1_1_" class="st14" d="M180.2,36.3c0.5,1.9-1.4,0.8-3.2,1.3c-1.8,0.5-2.8,2.5-3.3,0.6c-0.2-1-0.1-2,0.3-2.9
			c0.4-0.9,1.1-1.6,1.9-1.9c0.9-0.3,1.9,0.1,2.7,0.7S180,35.4,180.2,36.3z"/>
		
			<linearGradient id="Paw4_1_" gradientUnits="userSpaceOnUse" x1="172.4765" y1="34.066" x2="172.4765" y2="37.0994" gradientTransform="matrix(1 0 0 -1 0 69.8)">
			<stop  offset="0" style="stop-color:#FFD6C0"/>
			<stop  offset="1" style="stop-color:#FFA5A5"/>
		</linearGradient>
		<path id="Paw4_2_" class="st15" d="M173.3,35.6c-0.5,0.3-1.3,0-1.7-0.8c-0.5-0.8-0.4-1.6,0.1-2c0.5-0.3,1.3,0,1.7,0.8
			C173.9,34.4,173.8,35.3,173.3,35.6z"/>
		
			<linearGradient id="Paw3_1_" gradientUnits="userSpaceOnUse" x1="174.4815" y1="36.382" x2="174.4815" y2="39.4155" gradientTransform="matrix(1 0 0 -1 0 69.8)">
			<stop  offset="0" style="stop-color:#FFD6C0"/>
			<stop  offset="1" style="stop-color:#FFA5A5"/>
		</linearGradient>
		<path id="Paw3_2_" class="st16" d="M175.3,33.3c-0.5,0.3-1.3,0-1.7-0.8c-0.5-0.8-0.4-1.6,0.1-2c0.5-0.3,1.3,0,1.7,0.8
			C175.8,32.1,175.8,32.9,175.3,33.3z"/>
		
			<linearGradient id="Paw2_1_" gradientUnits="userSpaceOnUse" x1="177.2462" y1="36.9702" x2="177.2462" y2="40.2449" gradientTransform="matrix(1 0 0 -1 0 69.8)">
			<stop  offset="0" style="stop-color:#FFD6C0"/>
			<stop  offset="1" style="stop-color:#FFA5A5"/>
		</linearGradient>
		<path id="Paw2_2_" class="st17" d="M177.4,32.9c-0.6,0.1-1.1-0.6-1.2-1.6c-0.1-0.9,0.3-1.6,0.9-1.7s1.1,0.6,1.2,1.6
			C178.4,32,178,32.8,177.4,32.9z"/>
		
			<linearGradient id="Paw1_1_" gradientUnits="userSpaceOnUse" x1="179.9948" y1="35.61" x2="179.9948" y2="38.8737" gradientTransform="matrix(1 0 0 -1 0 69.8)">
			<stop  offset="0" style="stop-color:#FFD6C0"/>
			<stop  offset="1" style="stop-color:#FFA5A5"/>
		</linearGradient>
		<path id="Paw1_2_" class="st18" d="M179.8,34.1c-0.6-0.1-1-0.9-0.8-1.8c0.2-0.9,0.7-1.6,1.3-1.5c0.6,0.1,1,0.9,0.8,1.8
			C180.9,33.6,180.3,34.2,179.8,34.1z"/>
	</g>
</g>
<g id="right-paw">
	<g>
		<g>
			<g id="MainPaw1_19_">
				<path class="st3" d="M228,45.6c-1.7,0-3-0.6-3.8-1c-0.4,0.1-1,0.2-1.6,0.2l0,0c-2.2,0-4.1-1-5.4-2.6c-0.8-1-2-3.2-1.5-6.5
					c0.4-2.5,1.6-4.8,3.6-6.7l0.2-0.2c1.9-1.6,4-2.4,6.2-2.4c0.5,0,1,0,1.4,0.1c2.7,0.4,5.2,2.3,6.7,5.1c1.2,2.2,1.7,4.7,1.4,7.2
					v0.2C234.3,43.5,230.9,45.6,228,45.6z"/>
			</g>
			<g id="Paw4_19_">
				<path class="st3" d="M222.5,41.1c-3.9,0-7-3.2-7.6-7.5c-0.2-1.8,0.1-3.6,0.8-5.2c1.1-2.3,3.2-4,5.6-4.3c0.3-0.1,0.6-0.1,1-0.1
					c3.9,0,7,3.2,7.6,7.5c0.6,4.8-2.3,8.9-6.4,9.5C223.1,41,222.8,41.1,222.5,41.1z"/>
			</g>
			<g id="Paw3_19_">
				<path class="st3" d="M225.2,39.9c-3.9,0-7-3.2-7.5-7.5c-0.6-4.8,2.3-8.9,6.4-9.5c0.3-0.1,0.6-0.1,1-0.1c3.9,0,7,3.2,7.6,7.5
					c0.6,4.8-2.3,8.9-6.4,9.5C225.9,39.8,225.5,39.9,225.2,39.9z"/>
			</g>
			<g id="Paw2_19_">
				<path class="st3" d="M227.6,40.4c-0.8,0-1.5-0.2-2.3-0.4c-4-1.4-6-6.1-4.6-10.6c1.1-3.5,4.1-6,7.4-6c0.8,0,1.5,0.2,2.3,0.4
					c1.9,0.7,3.3,2.1,4.2,4c1,2,1.1,4.5,0.4,6.7C233.9,38,230.9,40.4,227.6,40.4z"/>
			</g>
			<g id="Paw1_19_">
				<path class="st3" d="M229.4,42.7c-1.4,0-2.7-0.4-4-1.2c-3.6-2.5-4.4-7.5-1.9-11.6c1.5-2.5,4-4.1,6.7-4.1c1.4,0,2.7,0.4,4,1.2
					c2,1.4,3.2,3.8,3.3,6.5c0,1.8-0.4,3.5-1.4,5.1C234.6,41.3,232.1,42.7,229.4,42.7z"/>
			</g>
		</g>
	</g>
	<g>
		<g>
			<g id="MainPaw1_18_">
				<path class="st4" d="M228,43.9c-1.4,0-2.5-0.6-3.2-1c-0.1-0.1-0.2-0.1-0.3-0.2c-0.1,0-0.2,0-0.3,0.1c-0.4,0.1-0.9,0.2-1.5,0.2
					c-2.3,0-3.6-1.3-4.2-2c-0.7-1-1.5-2.6-1.2-5.1c0.3-2.2,1.4-4.1,3-5.6l0.2-0.1c1.5-1.4,3.3-2.1,5.2-2.1c0.4,0,0.8,0,1.1,0.1
					c2.3,0.4,4.3,1.9,5.6,4.3c1.1,1.8,1.5,4,1.1,6v0.1C232.9,42.3,230.3,43.9,228,43.9z"/>
			</g>
			<g id="Paw4_18_">
				<path class="st4" d="M222.5,39.4c-3,0-5.5-2.5-6-6c-0.2-1.5,0.1-2.9,0.6-4.2c0.9-1.8,2.5-3.1,4.4-3.4c0.2,0,0.5-0.1,0.7-0.1
					c3,0,5.5,2.5,6,6c0.5,3.8-1.7,7.1-5,7.6C222.9,39.4,222.7,39.4,222.5,39.4z"/>
			</g>
			<g id="Paw3_18_">
				<path class="st4" d="M225.2,38.2c-3,0-5.5-2.5-6-6c-0.5-3.8,1.8-7.1,5-7.6c0.2,0,0.5-0.1,0.7-0.1c3,0,5.5,2.5,6,6
					c0.5,3.8-1.8,7.1-5,7.6C225.7,38.1,225.4,38.2,225.2,38.2z"/>
			</g>
			<g id="Paw2_18_">
				<path class="st4" d="M227.6,38.7c-0.6,0-1.2-0.1-1.8-0.3c-3.2-1.1-4.7-4.8-3.6-8.5c0.9-2.9,3.2-4.8,5.8-4.8
					c0.6,0,1.2,0.1,1.8,0.3c1.5,0.5,2.6,1.6,3.3,3.1c0.7,1.6,0.9,3.5,0.3,5.4C232.6,36.7,230.2,38.7,227.6,38.7z"/>
			</g>
			<g id="Paw1_18_">
				<path class="st4" d="M229.4,41c-1.1,0-2.2-0.3-3.1-1c-2.7-1.9-3.4-6-1.5-9.2c1.2-2.1,3.2-3.3,5.3-3.3c1.1,0,2.2,0.3,3.1,1
					c1.5,1.1,2.5,3,2.6,5.1c0,1.5-0.3,2.9-1.1,4.1C233.5,39.8,231.5,41,229.4,41z"/>
			</g>
		</g>
	</g>
	<g>
		
			<linearGradient id="MainPaw1_3_" gradientUnits="userSpaceOnUse" x1="225.2962" y1="31.0828" x2="225.2962" y2="36.5239" gradientTransform="matrix(1 0 0 -1 0 69.8)">
			<stop  offset="0" style="stop-color:#FFD6C0"/>
			<stop  offset="1" style="stop-color:#FFA5A5"/>
		</linearGradient>
		<path id="MainPaw1_4_" class="st19" d="M228.6,37.8c-0.3,2-1.5,0.1-3.4-0.2c-1.9-0.3-3.6,1-3.2-1c0.2-1,0.7-1.8,1.5-2.5
			c0.7-0.6,1.6-1,2.5-0.9c0.9,0.2,1.7,0.9,2.2,1.8C228.6,36,228.8,37,228.6,37.8z"/>
		
			<linearGradient id="Paw4_3_" gradientUnits="userSpaceOnUse" x1="222.3469" y1="35.6343" x2="222.3469" y2="38.9037" gradientTransform="matrix(1 0 0 -1 0 69.8)">
			<stop  offset="0" style="stop-color:#FFD6C0"/>
			<stop  offset="1" style="stop-color:#FFA5A5"/>
		</linearGradient>
		<path id="Paw4_6_" class="st20" d="M222.5,34.2c-0.6,0.1-1.1-0.6-1.2-1.5c-0.1-0.9,0.2-1.7,0.8-1.8c0.6-0.1,1.1,0.6,1.2,1.5
			C223.5,33.3,223.1,34.1,222.5,34.2z"/>
		
			<linearGradient id="Paw3_3_" gradientUnits="userSpaceOnUse" x1="225.0956" y1="36.857" x2="225.0956" y2="40.1264" gradientTransform="matrix(1 0 0 -1 0 69.8)">
			<stop  offset="0" style="stop-color:#FFD6C0"/>
			<stop  offset="1" style="stop-color:#FFA5A5"/>
		</linearGradient>
		<path id="Paw3_6_" class="st21" d="M225.3,32.9c-0.6,0.1-1.1-0.6-1.2-1.5c-0.1-0.9,0.2-1.7,0.8-1.8c0.6-0.1,1.1,0.6,1.2,1.5
			C226.3,32,225.9,32.9,225.3,32.9z"/>
		
			<linearGradient id="Paw2_3_" gradientUnits="userSpaceOnUse" x1="227.8655" y1="36.3283" x2="227.8655" y2="39.5245" gradientTransform="matrix(1 0 0 -1 0 69.8)">
			<stop  offset="0" style="stop-color:#FFD6C0"/>
			<stop  offset="1" style="stop-color:#FFA5A5"/>
		</linearGradient>
		<path id="Paw2_6_" class="st22" d="M227.4,33.4c-0.6-0.2-0.8-1-0.5-1.9c0.2-0.9,1-1.4,1.5-1.2s0.8,1,0.5,1.9
			C228.6,33.1,228,33.6,227.4,33.4z"/>
		
			<linearGradient id="Paw1_3_" gradientUnits="userSpaceOnUse" x1="229.813" y1="33.9713" x2="229.813" y2="36.9843" gradientTransform="matrix(1 0 0 -1 0 69.8)">
			<stop  offset="0" style="stop-color:#FFD6C0"/>
			<stop  offset="1" style="stop-color:#FFA5A5"/>
		</linearGradient>
		<path id="Paw1_6_" class="st23" d="M229,35.7c-0.5-0.3-0.5-1.2-0.1-2c0.5-0.8,1.2-1.1,1.7-0.8c0.5,0.3,0.5,1.2,0.1,2
			C230.2,35.7,229.5,36,229,35.7z"/>
	</g>
</g>
</svg>
