<?xml version="1.0" encoding="utf-8"?>
<!-- Generator: Adobe Illustrator 19.0.0, SVG Export Plug-In . SVG Version: 6.00 Build 0)  -->
<svg version="1.1" xmlns="http://www.w3.org/2000/svg" xmlns:xlink="http://www.w3.org/1999/xlink" x="0px" y="0px"
	 viewBox="0 0 1920 691" style="enable-background:new 0 0 1920 691;" xml:space="preserve">
<style type="text/css">
	.st0{fill:#74CFEB;}
	.st1{fill:#F7A3A5;}
	.st2{fill:none;}
</style>
<g id="Background">
	<rect id="XMLID_1_" class="st0" width="1920" height="691"/>
</g>
<g id="Bones">
	<g id="XMLID_2_">
		<path id="XMLID_13_" class="st1" d="M493.6,371.6l0.1-39.9v-0.1l-0.1-1.8c0,0,0-0.1,0-0.1c-0.2-3.6,1-6.8,4.1-10.4
			c3.5-4.1,6.2-7.6,6.2-12.5c0-5.5-3.7-10.6-12-10.6c-3,0-6.2,0.7-8.6,1.9c-2.4-1.2-5.6-1.9-8.6-1.9c-8.3,0-12,5.1-12,10.6
			c0,4.9,2.7,8.4,6.2,12.5c3.1,3.7,4.3,6.8,4.1,10.5c0,0,0,0.1,0,0.1l-0.1,1.8v0.1l0.1,39.9c0.2,3.7-0.9,6.8-4.1,10.6
			c-3.5,4.1-6.2,7.6-6.2,12.5c0,5.5,3.8,10.6,12,10.6c3,0,6.2-0.7,8.6-1.9c2.4,1.2,5.6,1.9,8.6,1.9c8.3,0,12-5.1,12-10.6
			c0-4.9-2.7-8.4-6.2-12.5C494.5,378.4,493.4,375.2,493.6,371.6z M490.6,400.1c-2.6,0-5.5-0.9-7.3-2.2c-1.8,1.4-4.7,2.2-7.3,2.2
			c-4.5-0.1-6.8-2.5-6.8-6.2c0-3.2,1.8-6,5-9.9c3.6-4.3,4.9-8.6,4.5-12.5l-0.1-40l0.1-1.8c0.4-3.9-0.9-8.1-4.5-12.5
			c-3.2-3.8-5-6.6-5-9.9c0-3.7,2.3-6.1,6.8-6.2c2.6,0,5.5,0.9,7.3,2.2c1.8-1.4,4.7-2.2,7.3-2.2c4.5,0.1,6.8,2.5,6.8,6.2
			c0,3.2-1.8,6-5,9.9c-3.6,4.3-4.9,8.6-4.5,12.5l0.1,1.8l-0.1,40c-0.4,3.9,0.9,8.1,4.5,12.5c3.2,3.8,5,6.6,5,9.9
			C497.4,397.6,495.1,400,490.6,400.1z"/>
		<path id="XMLID_28_" class="st1" d="M620.9,155.9c-0.8-5.3-1.2-9.7,1.3-13.8c2.9-4.6,8.7-6.9,15.6-2.6c2.5,1.6,4.8,3.8,6.2,6.1
			c2.6,0.3,5.7,1.3,8.2,2.9c7,4.3,7.4,10.6,4.6,15.2c-2.6,4.1-6.7,5.7-11.8,7.3c-4.6,1.5-7.3,3.5-9,6.8l-20.8,33.6l0,0.1l-1,1.5
			c0,0-0.1,0.1-0.1,0.1c-2.1,2.9-2.7,6.2-2,10.9c0.8,5.3,1.2,9.7-1.3,13.8c-2.9,4.6-8.7,6.9-15.7,2.6c-2.5-1.6-4.8-3.8-6.2-6
			c-2.6-0.3-5.7-1.3-8.2-2.9c-7-4.3-7.4-10.6-4.6-15.2c2.6-4.1,6.7-5.6,11.8-7.3c4.6-1.5,7.2-3.5,8.9-6.6c0,0,0-0.1,0.1-0.1l0.9-1.5
			l0-0.1l20.9-33.5C621,164,621.7,160.7,620.9,155.9z M627.3,146.2c-1.7,2.7-1.7,6-0.9,10.9c0.8,5.5-0.4,9.8-2.8,12.8l-21,33.5
			l-0.8,1.6c-1.7,3.5-5,6.4-10.3,8.1c-4.7,1.5-7.7,2.9-9.4,5.7c-1.9,3.1-1.3,6.3,2.5,8.8c2.2,1.4,5,2.1,7.3,1.9
			c0.8,2.1,2.8,4.3,5,5.7c3.8,2.3,7.1,1.5,9-1.6c1.7-2.7,1.7-6,0.9-10.9c-0.8-5.5,0.4-9.8,2.8-12.8l1-1.4l20.8-33.7
			c1.7-3.5,5-6.4,10.3-8.1c4.7-1.5,7.7-2.9,9.4-5.7c1.9-3.1,1.3-6.4-2.5-8.8c-2.2-1.4-5.1-2.1-7.3-1.9c-0.8-2.1-2.8-4.3-4.9-5.7
			C632.5,142.3,629.3,143.1,627.3,146.2z"/>
		<path id="XMLID_30_" class="st1" d="M991.7,214.5c-2.2,3.7-4.2,6.6-7.9,7.9c-4.1,1.4-8.9-0.1-11.1-6.4c-0.8-2.3-1-4.9-0.8-7
			c-1.5-1.5-2.8-3.7-3.6-6c-2.1-6.3,0.8-10.4,4.9-11.8c3.7-1.3,7.1-0.1,11,1.5c3.6,1.4,6.3,1.5,9,0.4l30.1-10.2l0.1,0l1.4-0.4
			c0,0,0.1,0,0.1,0c2.8-0.8,4.8-2.5,6.9-5.8c2.2-3.7,4.2-6.6,7.9-7.9c4.1-1.4,9,0.1,11.1,6.4c0.8,2.3,1,4.9,0.8,6.9
			c1.5,1.5,2.8,3.7,3.6,6c2.1,6.3-0.8,10.4-4.9,11.8c-3.7,1.2-7.1,0.1-11-1.5c-3.6-1.4-6.3-1.5-8.9-0.4c0,0-0.1,0-0.1,0l-1.3,0.5
			l-0.1,0l-30.1,10.1C995.9,209.5,993.8,211.2,991.7,214.5z M982.8,217.3c2.4-0.8,4.1-2.9,6.2-6.3c2.3-3.8,5.2-5.9,8.3-6.5
			l30.2-10.1l1.3-0.6c2.8-1.3,6.4-1.4,10.5,0.2c3.7,1.5,6.3,2.1,8.7,1.3c2.8-0.9,4-3.3,2.9-6.7c-0.7-2-2-3.9-3.5-4.9
			c0.6-1.7,0.5-4.1-0.2-6.1c-1.2-3.4-3.6-4.5-6.4-3.6c-2.4,0.8-4.1,2.9-6.2,6.3c-2.3,3.8-5.2,5.9-8.3,6.6l-1.4,0.3l-30.1,10.3
			c-2.8,1.3-6.4,1.4-10.6-0.2c-3.7-1.5-6.3-2.1-8.7-1.3c-2.8,0.9-4,3.3-2.9,6.7c0.7,2,2.1,3.9,3.5,4.9c-0.6,1.7-0.5,4.1,0.2,6.1
			C977.6,217.1,980,218.2,982.8,217.3z"/>
		<path id="XMLID_56_" class="st1" d="M1420.4,383.8c-2.4,0.7-4.4,1.2-6.5,0.2c-2.3-1-3.8-3.6-2.2-7.1c0.6-1.3,1.5-2.5,2.4-3.3
			c0-1.2,0.3-2.7,0.8-4c1.6-3.5,4.5-4.2,6.8-3.1c2.1,0.9,3.1,2.8,4.2,5c1,2.1,2.1,3.2,3.7,3.8l17,7.6l0,0l0.7,0.4c0,0,0,0,0.1,0
			c1.5,0.8,3.1,0.9,5.2,0.2c2.4-0.7,4.4-1.2,6.5-0.2c2.3,1,3.8,3.6,2.2,7.1c-0.6,1.3-1.5,2.5-2.4,3.3c0,1.2-0.3,2.7-0.8,4
			c-1.6,3.5-4.5,4.1-6.8,3.1c-2.1-0.9-3.1-2.8-4.2-5c-1-2-2.1-3.1-3.7-3.7c0,0,0,0-0.1,0l-0.8-0.3l0,0l-17-7.6
			C1424.2,383.3,1422.6,383.2,1420.4,383.8z M1415.5,381.5c1.4,0.6,2.9,0.4,5.2-0.3c2.5-0.7,4.6-0.5,6.2,0.5l17,7.7l0.8,0.3
			c1.7,0.6,3.3,1.9,4.5,4.3c1,2.1,1.9,3.4,3.2,4c1.6,0.7,3,0.2,3.9-1.7c0.5-1.1,0.7-2.5,0.4-3.5c0.9-0.5,1.8-1.6,2.3-2.7
			c0.8-1.9,0.2-3.4-1.3-4.1c-1.4-0.6-2.9-0.4-5.2,0.3c-2.5,0.7-4.6,0.5-6.2-0.5l-0.7-0.4l-17.1-7.6c-1.7-0.6-3.3-1.9-4.5-4.3
			c-1-2.1-1.9-3.4-3.2-4c-1.6-0.7-3-0.2-3.9,1.7c-0.5,1.1-0.7,2.5-0.4,3.5c-0.9,0.5-1.8,1.6-2.3,2.7
			C1413.3,379.3,1413.9,380.8,1415.5,381.5z"/>
		<path id="XMLID_36_" class="st1" d="M1394.9,190.1c-2.4,0.7-4.4,1.2-6.5,0.2c-2.3-1-3.8-3.6-2.2-7.1c0.6-1.3,1.5-2.5,2.4-3.3
			c0-1.2,0.3-2.7,0.8-4c1.6-3.5,4.5-4.2,6.8-3.1c2.1,0.9,3.1,2.8,4.2,5c1,2.1,2.1,3.2,3.7,3.8l17,7.6l0,0l0.7,0.4c0,0,0,0,0.1,0
			c1.5,0.8,3.1,0.9,5.2,0.2c2.4-0.7,4.4-1.2,6.5-0.2c2.3,1,3.8,3.6,2.2,7.1c-0.6,1.3-1.5,2.5-2.4,3.3c0,1.2-0.3,2.7-0.8,4
			c-1.6,3.5-4.5,4.1-6.8,3.1c-2.1-0.9-3.1-2.8-4.2-5c-1-2-2.1-3.1-3.7-3.7c0,0,0,0-0.1,0l-0.8-0.3l0,0l-17-7.6
			C1398.6,189.5,1397.1,189.4,1394.9,190.1z M1389.9,187.7c1.4,0.6,2.9,0.4,5.2-0.3c2.5-0.7,4.6-0.5,6.2,0.5l17,7.7l0.8,0.3
			c1.7,0.6,3.3,1.9,4.5,4.3c1,2.1,1.9,3.4,3.2,4c1.6,0.7,3,0.2,3.9-1.7c0.5-1.1,0.7-2.5,0.4-3.5c0.9-0.5,1.8-1.6,2.3-2.7
			c0.8-1.9,0.2-3.4-1.3-4.1c-1.4-0.6-2.9-0.4-5.2,0.3c-2.5,0.7-4.6,0.5-6.2-0.5l-0.7-0.4L1403,184c-1.7-0.6-3.3-1.9-4.5-4.3
			c-1-2.1-1.9-3.4-3.2-4c-1.6-0.7-3-0.2-3.9,1.7c-0.5,1.1-0.7,2.5-0.4,3.5c-0.9,0.5-1.8,1.6-2.3,2.7
			C1387.7,185.6,1388.3,187,1389.9,187.7z"/>
		<g id="XMLID_94_">
			
				<rect id="XMLID_98_" x="1413.1" y="477.4" transform="matrix(-9.567275e-002 -0.9954 0.9954 -9.567275e-002 1036.7952 2021.5553)" class="st2" width="47.1" height="124.7"/>
			<path id="XMLID_95_" class="st1" d="M1402.5,559.6c-4.3,4.4-8,7.9-13.6,8.4c-6.2,0.6-12.4-3.1-13.4-12.5c-0.3-3.4,0.1-7.1,1.2-10
				c-1.6-2.6-2.7-6.1-3.1-9.5c-0.9-9.4,4.5-14.2,10.7-14.8c5.6-0.5,9.9,2.2,14.9,5.7c4.6,3.2,8.3,4.2,12.5,3.5l45.4-4.4l0.1,0l2-0.1
				c0,0,0.1,0,0.1,0c4.1-0.2,7.6-1.9,11.5-5.8c4.3-4.4,8-7.9,13.6-8.4c6.2-0.6,12.5,3.1,13.4,12.5c0.3,3.4-0.1,7.1-1.2,9.9
				c1.6,2.6,2.7,6.1,3.1,9.6c0.9,9.4-4.5,14.2-10.7,14.8c-5.6,0.5-9.9-2.2-14.9-5.7c-4.6-3.2-8.2-4.1-12.3-3.5c0,0-0.1,0-0.1,0
				l-2,0.3l-0.1,0l-45.4,4.3C1409.9,554,1406.4,555.6,1402.5,559.6z M1389.1,560.6c3.7-0.4,6.7-2.7,10.7-6.8
				c4.5-4.6,9.2-6.5,13.7-6.4l45.5-4.2l2-0.3c4.4-0.9,9.4,0.1,14.7,3.7c4.7,3.3,8.1,5,11.8,4.7c4.2-0.4,6.7-3.3,6.3-8.5
				c-0.3-2.9-1.6-6.1-3.3-8c1.4-2.2,2-5.6,1.7-8.5c-0.6-5.1-3.6-7.5-7.8-7.1c-3.7,0.4-6.7,2.7-10.7,6.8c-4.5,4.6-9.2,6.5-13.7,6.4
				l-2,0l-45.4,4.5c-4.4,0.9-9.4-0.1-14.7-3.7c-4.7-3.3-8.1-5-11.8-4.7c-4.2,0.4-6.7,3.3-6.3,8.5c0.3,3,1.6,6.1,3.3,8
				c-1.4,2.2-2,5.6-1.7,8.5C1381.9,558.7,1384.9,561,1389.1,560.6z"/>
		</g>
		<g id="XMLID_41_">
			
				<rect id="XMLID_92_" x="1580.5" y="411.7" transform="matrix(-0.9794 -0.202 0.202 -0.9794 3079.9009 1264.7072)" class="st2" width="47.9" height="126.9"/>
			<path id="XMLID_72_" class="st1" d="M1613.5,514.4c3,5.5,5.3,10.1,4.1,15.7c-1.3,6.2-6.7,11.2-16.2,9.2c-3.4-0.7-6.9-2.3-9.3-4.1
				c-3,0.8-6.8,0.8-10.2,0.1c-9.4-1.9-12.5-8.6-11.2-14.9c1.2-5.6,5.1-9,10-12.8c4.5-3.5,6.6-6.9,7.2-11.1l9.3-45.4l0-0.1l0.5-2
				c0,0,0-0.1,0-0.1c1.1-4.1,0.5-7.9-2.2-12.9c-3-5.5-5.3-10.1-4.1-15.7c1.3-6.2,6.8-11.2,16.2-9.2c3.4,0.7,6.9,2.3,9.3,4.1
				c3-0.8,6.8-0.8,10.2-0.1c9.4,1.9,12.5,8.6,11.2,14.9c-1.1,5.6-5.1,8.9-10,12.8c-4.4,3.5-6.5,6.8-7.1,10.9c0,0,0,0.1,0,0.1l-0.3,2
				l0,0.1l-9.5,45.4C1610.2,505.5,1610.8,509.4,1613.5,514.4z M1610.4,527.7c0.8-3.7-0.6-7.3-3.4-12.4c-3.1-5.8-3.6-10.9-2.2-15.2
				l9.5-45.5l0.3-2.1c0.4-4.5,2.9-9.1,8-13.1c4.6-3.6,7.3-6.4,8.1-10c0.9-4.2-1.2-7.5-6.3-8.7c-3-0.6-6.4-0.3-8.8,0.8
				c-1.7-2-4.8-3.6-7.8-4.3c-5.2-1-8.4,1.3-9.2,5.4c-0.8,3.7,0.6,7.3,3.4,12.4c3.1,5.8,3.6,10.9,2.2,15.2l-0.6,2l-9.2,45.6
				c-0.4,4.5-2.9,9.1-8,13.1c-4.6,3.6-7.3,6.4-8.1,10.1c-0.9,4.2,1.2,7.5,6.3,8.7c3,0.6,6.4,0.3,8.8-0.8c1.7,2,4.8,3.6,7.8,4.2
				C1606.4,534.2,1609.5,531.9,1610.4,527.7z"/>
		</g>
		<g id="XMLID_115_">
			
				<rect id="XMLID_119_" x="832.4" y="428.4" transform="matrix(-0.2891 -0.9573 0.9573 -0.2891 652.815 1384.6238)" class="st2" width="16.2" height="43"/>
			<path id="XMLID_116_" class="st1" d="M830.3,458.9c-1.2,1.8-2.2,3.2-4,3.8c-2.1,0.6-4.4-0.2-5.4-3.3c-0.3-1.1-0.4-2.4-0.3-3.5
				c-0.7-0.8-1.3-1.9-1.7-3c-0.9-3.1,0.6-5.1,2.6-5.7c1.8-0.6,3.5,0.1,5.4,0.9c1.8,0.8,3.1,0.8,4.5,0.3l15-4.6l0,0l0.7-0.2
				c0,0,0,0,0,0c1.4-0.3,2.4-1.1,3.5-2.7c1.2-1.8,2.2-3.2,4-3.8c2.1-0.6,4.4,0.2,5.4,3.3c0.3,1.1,0.4,2.4,0.3,3.4
				c0.7,0.8,1.3,1.9,1.7,3c0.9,3.1-0.6,5.1-2.6,5.7c-1.8,0.6-3.5-0.1-5.4-0.9c-1.8-0.8-3.1-0.8-4.4-0.4c0,0,0,0,0,0l-0.7,0.2l0,0
				l-15.1,4.5C832.4,456.5,831.4,457.3,830.3,458.9z M825.8,460.2c1.2-0.4,2.1-1.4,3.2-3c1.2-1.9,2.7-2.8,4.2-3.1l15.1-4.5l0.7-0.3
				c1.4-0.6,3.2-0.6,5.2,0.3c1.8,0.8,3.1,1.1,4.3,0.8c1.4-0.4,2-1.6,1.6-3.3c-0.3-1-0.9-2-1.7-2.5c0.3-0.8,0.3-2,0-3
				c-0.5-1.7-1.7-2.3-3.1-1.9c-1.2,0.4-2.1,1.4-3.1,3c-1.2,1.9-2.7,2.8-4.2,3.1l-0.7,0.1l-15.1,4.6c-1.4,0.6-3.2,0.6-5.2-0.3
				c-1.8-0.8-3.1-1.1-4.3-0.8c-1.4,0.4-2,1.6-1.6,3.3c0.3,1,1,2,1.7,2.5c-0.3,0.8-0.3,2,0,3C823.3,460,824.5,460.6,825.8,460.2z"/>
		</g>
		<g id="XMLID_3_">
			
				<rect id="XMLID_20_" x="730.7" y="366.6" transform="matrix(-0.2891 -0.9573 0.9573 -0.2891 580.8667 1207.5205)" class="st2" width="16.2" height="43"/>
			<path id="XMLID_4_" class="st1" d="M728.6,397.1c-1.2,1.8-2.2,3.2-4,3.8c-2.1,0.6-4.4-0.2-5.4-3.3c-0.3-1.1-0.4-2.4-0.3-3.5
				c-0.7-0.8-1.3-1.9-1.7-3c-0.9-3.1,0.6-5.1,2.6-5.7c1.8-0.6,3.5,0.1,5.4,0.9c1.8,0.8,3.1,0.8,4.5,0.3l15-4.6l0,0l0.7-0.2
				c0,0,0,0,0,0c1.4-0.3,2.4-1.1,3.5-2.7c1.2-1.8,2.2-3.2,4-3.8c2.1-0.6,4.4,0.2,5.4,3.3c0.3,1.1,0.4,2.4,0.3,3.4
				c0.7,0.8,1.3,1.9,1.7,3c0.9,3.1-0.6,5.1-2.6,5.7c-1.8,0.6-3.5-0.1-5.4-0.9c-1.8-0.8-3.1-0.8-4.4-0.4c0,0,0,0,0,0l-0.7,0.2l0,0
				l-15.1,4.5C730.7,394.7,729.6,395.5,728.6,397.1z M724.1,398.3c1.2-0.4,2.1-1.4,3.2-3c1.2-1.9,2.7-2.8,4.2-3.1l15.1-4.5l0.7-0.3
				c1.4-0.6,3.2-0.6,5.2,0.3c1.8,0.8,3.1,1.1,4.3,0.8c1.4-0.4,2-1.6,1.6-3.3c-0.3-1-0.9-2-1.7-2.5c0.3-0.8,0.3-2,0-3
				c-0.5-1.7-1.7-2.3-3.1-1.9c-1.2,0.4-2.1,1.4-3.1,3c-1.2,1.9-2.7,2.8-4.2,3.1l-0.7,0.1l-15.1,4.6c-1.4,0.6-3.2,0.6-5.2-0.3
				c-1.8-0.8-3.1-1.1-4.3-0.8c-1.4,0.4-2,1.6-1.6,3.3c0.3,1,1,2,1.7,2.5c-0.3,0.8-0.3,2,0,3C721.5,398.2,722.7,398.7,724.1,398.3z"
				/>
		</g>
		<g id="XMLID_110_">
			
				<rect id="XMLID_114_" x="924.7" y="450.8" transform="matrix(7.861695e-002 0.9969 -0.9969 7.861695e-002 1311.0619 -502.5726)" class="st2" width="5.4" height="14.3"/>
			<path id="XMLID_111_" class="st1" d="M931.4,455.8c0.5-0.5,0.9-0.9,1.6-0.9c0.7-0.1,1.4,0.4,1.5,1.5c0,0.4,0,0.8-0.2,1.1
				c0.2,0.3,0.3,0.7,0.3,1.1c0.1,1.1-0.5,1.6-1.3,1.7c-0.6,0.1-1.1-0.3-1.7-0.7c-0.5-0.4-0.9-0.5-1.4-0.4l-5.2,0.4l0,0l-0.2,0
				c0,0,0,0,0,0c-0.5,0-0.9,0.2-1.3,0.6c-0.5,0.5-0.9,0.9-1.6,0.9c-0.7,0.1-1.4-0.4-1.5-1.5c0-0.4,0-0.8,0.2-1.1
				c-0.2-0.3-0.3-0.7-0.3-1.1c-0.1-1.1,0.5-1.6,1.3-1.7c0.6-0.1,1.1,0.3,1.7,0.7c0.5,0.4,0.9,0.5,1.4,0.4c0,0,0,0,0,0l0.2,0l0,0
				l5.2-0.4C930.5,456.4,930.9,456.2,931.4,455.8z M932.9,455.7c-0.4,0-0.8,0.3-1.2,0.8c-0.5,0.5-1.1,0.7-1.6,0.7l-5.2,0.4l-0.2,0
				c-0.5,0.1-1.1,0-1.7-0.5c-0.5-0.4-0.9-0.6-1.3-0.6c-0.5,0-0.8,0.4-0.7,1c0,0.3,0.2,0.7,0.4,0.9c-0.2,0.2-0.2,0.6-0.2,1
				c0.1,0.6,0.4,0.9,0.9,0.8c0.4,0,0.8-0.3,1.2-0.8c0.5-0.5,1.1-0.7,1.6-0.7l0.2,0l5.2-0.4c0.5-0.1,1.1,0,1.7,0.5
				c0.5,0.4,0.9,0.6,1.3,0.6c0.5,0,0.8-0.4,0.7-1c0-0.3-0.2-0.7-0.4-0.9c0.2-0.2,0.2-0.6,0.2-1C933.7,455.9,933.4,455.7,932.9,455.7
				z"/>
		</g>
		<g id="XMLID_52_">
			
				<rect id="XMLID_93_" x="1003.4" y="417" transform="matrix(0.9148 0.4039 -0.4039 0.9148 268.7674 -372.0455)" class="st2" width="25.7" height="68.1"/>
			<path id="XMLID_87_" class="st1" d="M1016,429.5c-0.9-3.2-1.6-5.9-0.4-8.7c1.4-3.1,4.8-5.1,9.5-3c1.7,0.8,3.4,2,4.4,3.2
				c1.6-0.1,3.6,0.3,5.4,1.1c4.7,2.1,5.6,5.9,4.2,9.1c-1.2,2.8-3.7,4.1-6.7,5.6c-2.8,1.3-4.2,2.9-5,5l-10,22.8l0,0.1l-0.5,1
				c0,0,0,0,0,0.1c-1,2-1.1,4.1-0.3,7c0.9,3.2,1.6,5.9,0.4,8.7c-1.4,3.1-4.8,5.1-9.5,3c-1.7-0.8-3.4-2-4.4-3.2
				c-1.7,0.1-3.6-0.3-5.4-1.1c-4.7-2.1-5.6-5.9-4.2-9.1c1.2-2.8,3.7-4.1,6.7-5.6c2.7-1.3,4.2-2.8,5-4.9c0,0,0-0.1,0-0.1l0.4-1l0-0.1
				l10.1-22.7C1016.7,434.5,1016.8,432.4,1016,429.5z M1019.1,422.8c-0.8,1.8-0.5,3.9,0.4,6.9c1,3.4,0.6,6.1-0.6,8.2l-10.1,22.8
				l-0.4,1c-0.7,2.3-2.5,4.4-5.7,6c-2.8,1.4-4.5,2.5-5.4,4.4c-0.9,2.1-0.2,4.1,2.3,5.3c1.5,0.7,3.3,0.9,4.7,0.6
				c0.7,1.2,2.1,2.5,3.6,3.1c2.6,1.1,4.5,0.3,5.5-1.8c0.8-1.8,0.5-3.9-0.4-6.9c-1-3.4-0.6-6.1,0.6-8.2l0.5-1l10-22.8
				c0.7-2.3,2.5-4.4,5.7-6c2.8-1.4,4.5-2.5,5.4-4.4c0.9-2.1,0.2-4.1-2.3-5.3c-1.5-0.7-3.3-0.9-4.7-0.6c-0.7-1.2-2.1-2.5-3.6-3.1
				C1022,419.9,1020,420.8,1019.1,422.8z"/>
		</g>
		<g id="XMLID_47_">
			
				<rect id="XMLID_51_" x="1136.4" y="344.4" transform="matrix(0.9148 0.4039 -0.4039 0.9148 250.754 -431.9317)" class="st2" width="25.7" height="68.1"/>
			<path id="XMLID_48_" class="st1" d="M1148.9,356.8c-0.9-3.2-1.6-5.9-0.4-8.7c1.4-3.1,4.8-5.1,9.5-3c1.7,0.8,3.4,2,4.4,3.2
				c1.6-0.1,3.6,0.3,5.4,1.1c4.7,2.1,5.6,5.9,4.2,9.1c-1.2,2.8-3.7,4.1-6.7,5.6c-2.8,1.3-4.2,2.9-5,5l-10,22.8l0,0.1l-0.5,1
				c0,0,0,0,0,0.1c-1,2-1.1,4.1-0.3,7c0.9,3.2,1.6,5.9,0.4,8.7c-1.4,3.1-4.8,5.1-9.5,3c-1.7-0.8-3.4-2-4.4-3.2
				c-1.7,0.1-3.6-0.3-5.4-1.1c-4.7-2.1-5.6-5.9-4.2-9.1c1.2-2.8,3.7-4.1,6.7-5.6c2.7-1.3,4.2-2.8,5-4.9c0,0,0-0.1,0-0.1l0.4-1l0-0.1
				l10.1-22.7C1149.6,361.9,1149.8,359.8,1148.9,356.8z M1152,350.2c-0.8,1.8-0.5,3.9,0.4,6.9c1,3.4,0.6,6.1-0.6,8.2l-10.1,22.8
				l-0.4,1c-0.7,2.3-2.5,4.4-5.7,6c-2.8,1.4-4.5,2.5-5.4,4.4c-0.9,2.1-0.2,4.1,2.3,5.3c1.5,0.7,3.3,0.9,4.7,0.6
				c0.7,1.2,2.1,2.5,3.6,3.1c2.6,1.1,4.5,0.3,5.5-1.8c0.8-1.8,0.5-3.9-0.4-6.9c-1-3.4-0.6-6.1,0.6-8.2l0.5-1l10-22.8
				c0.7-2.3,2.5-4.4,5.7-6c2.8-1.4,4.5-2.5,5.4-4.4c0.9-2.1,0.2-4.1-2.3-5.3c-1.5-0.7-3.3-0.9-4.7-0.6c-0.7-1.2-2.1-2.5-3.6-3.1
				C1154.9,347.3,1153,348.1,1152,350.2z"/>
		</g>
		<g id="XMLID_109_">
			
				<rect id="XMLID_124_" x="395.7" y="534.3" transform="matrix(-0.7553 0.6553 -0.6553 -0.7553 1087.1343 727.1515)" class="st2" width="24.3" height="64.4"/>
			<path id="XMLID_121_" class="st1" d="M426.4,575c3.1,0.5,5.7,1,7.6,3.2c2.1,2.4,2.4,6.2-1.3,9.4c-1.3,1.2-3,2.1-4.5,2.5
				c-0.6,1.4-1.8,3-3.1,4.1c-3.7,3.2-7.3,2.4-9.5-0.1c-1.9-2.2-2-4.8-2.1-8c0-2.9-0.7-4.8-2.3-6.3l-15.4-17.7l0,0l-0.7-0.8
				c0,0,0,0-0.1-0.1c-1.3-1.7-3-2.6-5.9-3.1c-3.1-0.5-5.7-1-7.6-3.2c-2.1-2.4-2.4-6.2,1.3-9.4c1.3-1.2,3-2.1,4.5-2.5
				c0.6-1.4,1.8-3,3.1-4.2c3.7-3.2,7.3-2.4,9.5,0.1c1.9,2.2,2,4.8,2.1,8c0,2.9,0.7,4.7,2.2,6.2c0,0,0,0,0.1,0.1l0.7,0.8l0,0
				l15.4,17.8C421.8,573.6,423.6,574.5,426.4,575z M430.8,580.3c-1.3-1.4-3.1-2-6.1-2.4c-3.3-0.5-5.5-1.9-6.8-3.8l-15.4-17.9
				l-0.7-0.7c-1.7-1.6-2.8-4-2.8-7.3c0-3-0.3-4.9-1.6-6.3c-1.4-1.6-3.4-1.8-5.4-0.1c-1.2,1-2.1,2.5-2.4,3.8
				c-1.3,0.1-2.9,0.8-4.1,1.8c-2,1.8-2.1,3.8-0.7,5.4c1.3,1.4,3.1,2,6.1,2.4c3.3,0.5,5.5,1.9,6.8,3.8l0.6,0.8l15.5,17.8
				c1.7,1.6,2.8,4,2.8,7.3c0,3,0.3,4.9,1.6,6.3c1.4,1.6,3.4,1.8,5.4,0.1c1.2-1,2.1-2.5,2.4-3.8c1.3-0.1,2.9-0.8,4.1-1.8
				C432.2,583.9,432.2,581.9,430.8,580.3z"/>
		</g>
		<g id="XMLID_63_">
			
				<rect id="XMLID_86_" x="484" y="549.8" transform="matrix(0.2738 -0.9618 0.9618 0.2738 -196.1974 894.7047)" class="st2" width="20.8" height="55"/>
			<path id="XMLID_65_" class="st1" d="M477.1,579.9c-2.5,1.1-4.6,1.9-6.9,1.3c-2.7-0.8-4.6-3.3-3.5-7.3c0.4-1.5,1.2-2.9,2.1-3.9
				c-0.2-1.3-0.1-3,0.3-4.4c1.1-4,4.1-5.1,6.8-4.4c2.4,0.7,3.7,2.5,5.2,4.7c1.4,2.1,2.8,3.1,4.6,3.5l19.3,5.5l0,0l0.9,0.3
				c0,0,0,0,0.1,0c1.7,0.6,3.4,0.5,5.6-0.5c2.5-1.1,4.6-1.9,6.9-1.3c2.7,0.8,4.6,3.3,3.5,7.3c-0.4,1.5-1.2,2.9-2.1,3.9
				c0.2,1.3,0.1,3-0.3,4.4c-1.1,4-4.1,5.1-6.8,4.4c-2.4-0.7-3.7-2.5-5.2-4.7c-1.4-2-2.7-3-4.5-3.4c0,0,0,0-0.1,0l-0.9-0.2l0,0
				l-19.3-5.5C481.1,578.8,479.4,578.9,477.1,579.9z M471.5,578.2c1.6,0.4,3.2,0,5.5-1.1c2.6-1.1,4.8-1.2,6.7-0.4l19.4,5.6l0.9,0.2
				c1.9,0.3,3.8,1.5,5.4,3.9c1.4,2.1,2.5,3.4,4.1,3.8c1.8,0.5,3.3-0.3,3.9-2.5c0.4-1.3,0.3-2.8-0.1-3.8c0.9-0.7,1.7-2,2.1-3.2
				c0.6-2.2-0.3-3.7-2.1-4.2c-1.6-0.4-3.2,0-5.5,1.1c-2.6,1.1-4.8,1.2-6.7,0.4l-0.8-0.3l-19.4-5.4c-1.9-0.3-3.8-1.5-5.4-3.9
				c-1.4-2.1-2.5-3.4-4.1-3.8c-1.8-0.5-3.3,0.3-3.9,2.5c-0.4,1.3-0.3,2.8,0.1,3.8c-0.9,0.7-1.7,2-2.1,3.2
				C468.8,576.2,469.7,577.6,471.5,578.2z"/>
		</g>
		<g id="XMLID_24_">
			
				<rect id="XMLID_29_" x="484" y="456.3" transform="matrix(0.2738 -0.9618 0.9618 0.2738 -106.3289 826.8483)" class="st2" width="20.8" height="55"/>
			<path id="XMLID_25_" class="st1" d="M477.1,486.5c-2.5,1.1-4.6,1.9-6.9,1.3c-2.7-0.8-4.6-3.3-3.5-7.3c0.4-1.5,1.2-2.9,2.1-3.9
				c-0.2-1.3-0.1-3,0.3-4.4c1.1-4,4.1-5.1,6.8-4.4c2.4,0.7,3.7,2.5,5.2,4.7c1.4,2.1,2.8,3.1,4.6,3.5l19.3,5.5l0,0l0.9,0.3
				c0,0,0,0,0.1,0c1.7,0.6,3.4,0.5,5.6-0.5c2.5-1.1,4.6-1.9,6.9-1.3c2.7,0.8,4.6,3.3,3.5,7.3c-0.4,1.5-1.2,2.9-2.1,3.9
				c0.2,1.3,0.1,3-0.3,4.4c-1.1,4-4.1,5.1-6.8,4.4c-2.4-0.7-3.7-2.5-5.2-4.7c-1.4-2-2.7-3-4.5-3.4c0,0,0,0-0.1,0l-0.9-0.2l0,0
				l-19.3-5.5C481.1,485.3,479.4,485.5,477.1,486.5z M471.5,484.7c1.6,0.4,3.2,0,5.5-1.1c2.6-1.1,4.8-1.2,6.7-0.4l19.4,5.6l0.9,0.2
				c1.9,0.3,3.8,1.5,5.4,3.9c1.4,2.1,2.5,3.4,4.1,3.8c1.8,0.5,3.3-0.3,3.9-2.5c0.4-1.3,0.3-2.8-0.1-3.8c0.9-0.7,1.7-2,2.1-3.2
				c0.6-2.2-0.3-3.7-2.1-4.2c-1.6-0.4-3.2,0-5.5,1.1c-2.6,1.1-4.8,1.2-6.7,0.4l-0.8-0.3l-19.4-5.4c-1.9-0.3-3.8-1.5-5.4-3.9
				c-1.4-2.1-2.5-3.4-4.1-3.8c-1.8-0.5-3.3,0.3-3.9,2.5c-0.4,1.3-0.3,2.8,0.1,3.8c-0.9,0.7-1.7,2-2.1,3.2
				C468.8,482.8,469.7,484.2,471.5,484.7z"/>
		</g>
		<path id="XMLID_67_" class="st1" d="M205.9,378.3c-0.5,0.4-0.9,0.7-1.4,0.7c-0.6,0-1.2-0.4-1.1-1.4c0-0.3,0.1-0.7,0.2-0.9
			c-0.1-0.3-0.2-0.6-0.2-1c0-0.9,0.6-1.3,1.2-1.3c0.5,0,0.9,0.3,1.4,0.7c0.4,0.4,0.8,0.5,1.2,0.5l4.4,0.1l0,0l0.2,0c0,0,0,0,0,0
			c0.4,0,0.8-0.1,1.2-0.4c0.5-0.4,0.9-0.7,1.4-0.7c0.6,0,1.2,0.4,1.1,1.4c0,0.3-0.1,0.7-0.2,0.9c0.1,0.3,0.2,0.6,0.2,1
			c0,0.9-0.6,1.3-1.2,1.3c-0.5,0-0.9-0.3-1.4-0.7c-0.4-0.4-0.7-0.5-1.1-0.5c0,0,0,0,0,0l-0.2,0l0,0l-4.4-0.1
			C206.7,377.8,206.3,377.9,205.9,378.3z M204.6,378.2c0.4,0,0.7-0.2,1.1-0.5c0.5-0.4,1-0.5,1.4-0.5l4.4,0.1l0.2,0
			c0.4,0,0.9,0.1,1.4,0.5c0.4,0.4,0.7,0.6,1.1,0.6c0.4,0,0.7-0.2,0.7-0.7c0-0.3-0.1-0.6-0.2-0.8c0.2-0.2,0.3-0.5,0.3-0.8
			c0-0.5-0.3-0.8-0.7-0.8c-0.4,0-0.7,0.2-1.1,0.5c-0.5,0.4-1,0.5-1.4,0.5l-0.2,0l-4.4-0.1c-0.4,0-0.9-0.1-1.4-0.5
			c-0.4-0.4-0.7-0.6-1.1-0.6c-0.4,0-0.7,0.2-0.7,0.7c0,0.3,0.1,0.6,0.2,0.8c-0.2,0.2-0.3,0.5-0.3,0.8
			C203.9,378,204.2,378.2,204.6,378.2z"/>
		<path id="XMLID_32_" class="st1" d="M305.5,517c-0.5,0.4-0.9,0.7-1.4,0.7c-0.6,0-1.2-0.4-1.1-1.4c0-0.3,0.1-0.7,0.2-0.9
			c-0.1-0.3-0.2-0.6-0.2-1c0-0.9,0.6-1.3,1.2-1.3c0.5,0,0.9,0.3,1.4,0.7c0.4,0.4,0.8,0.5,1.2,0.5l4.4,0.1l0,0l0.2,0c0,0,0,0,0,0
			c0.4,0,0.8-0.1,1.2-0.4c0.5-0.4,0.9-0.7,1.4-0.7c0.6,0,1.2,0.4,1.1,1.4c0,0.3-0.1,0.7-0.2,0.9c0.1,0.3,0.2,0.6,0.2,1
			c0,0.9-0.6,1.3-1.2,1.3c-0.5,0-0.9-0.3-1.4-0.7c-0.4-0.4-0.7-0.5-1.1-0.5c0,0,0,0,0,0l-0.2,0l0,0l-4.4-0.1
			C306.2,516.6,305.9,516.7,305.5,517z M304.2,517c0.4,0,0.7-0.2,1.1-0.5c0.5-0.4,1-0.5,1.4-0.5l4.4,0.1l0.2,0
			c0.4,0,0.9,0.1,1.4,0.5c0.4,0.4,0.7,0.6,1.1,0.6c0.4,0,0.7-0.2,0.7-0.7c0-0.3-0.1-0.6-0.2-0.8c0.2-0.2,0.3-0.5,0.3-0.8
			c0-0.5-0.3-0.8-0.7-0.8c-0.4,0-0.7,0.2-1.1,0.5c-0.5,0.4-1,0.5-1.4,0.5l-0.2,0l-4.4-0.1c-0.4,0-0.9-0.1-1.4-0.5
			c-0.4-0.4-0.7-0.6-1.1-0.6c-0.4,0-0.7,0.2-0.7,0.7c0,0.3,0.1,0.6,0.2,0.8c-0.2,0.2-0.3,0.5-0.3,0.8
			C303.5,516.7,303.8,517,304.2,517z"/>
		<path id="XMLID_83_" class="st1" d="M217.5,165.8c-0.6,3.7-1.3,6.8-3.9,9c-2.9,2.5-7.4,2.8-11.1-1.7c-1.4-1.6-2.4-3.6-2.9-5.4
			c-1.7-0.7-3.5-2.1-4.9-3.7c-3.7-4.4-2.7-8.7,0.3-11.2c2.6-2.2,5.8-2.3,9.5-2.3c3.4,0,5.7-0.8,7.5-2.6l21.3-18l0,0l1-0.8
			c0,0,0.1,0,0.1-0.1c2-1.5,3.2-3.6,3.8-6.9c0.6-3.7,1.3-6.8,3.9-9c2.9-2.5,7.4-2.8,11.1,1.7c1.4,1.6,2.4,3.6,2.8,5.4
			c1.7,0.8,3.5,2.1,4.9,3.8c3.7,4.4,2.7,8.7-0.3,11.2c-2.6,2.2-5.7,2.3-9.5,2.3c-3.4,0-5.6,0.8-7.5,2.5c0,0,0,0-0.1,0.1l-0.9,0.8
			l0,0l-21.4,17.9C219.3,160.4,218.1,162.4,217.5,165.8z M211.1,170.9c1.7-1.5,2.4-3.7,3-7.1c0.7-3.9,2.4-6.5,4.7-8l21.5-17.9
			l0.9-0.9c1.9-2,4.8-3.2,8.7-3.2c3.5,0,5.8-0.3,7.6-1.7c2-1.7,2.2-4,0.2-6.5c-1.2-1.4-2.9-2.5-4.5-2.9c-0.1-1.6-0.9-3.5-2.1-4.9
			c-2.1-2.4-4.4-2.5-6.4-0.9c-1.7,1.5-2.4,3.7-3,7.1c-0.7,3.9-2.4,6.5-4.7,8l-1,0.7l-21.4,18.1c-1.9,2-4.8,3.2-8.7,3.2
			c-3.5,0-5.8,0.3-7.6,1.7c-2,1.7-2.2,4-0.2,6.5c1.2,1.4,2.9,2.5,4.5,2.9c0.1,1.6,0.9,3.5,2.1,4.9
			C206.8,172.4,209.1,172.6,211.1,170.9z"/>
		<path id="XMLID_127_" class="st1" d="M219.3,520.6c1.4,0.9,2.5,1.7,3,3.2c0.5,1.6-0.2,3.5-2.7,4.3c-0.9,0.3-1.9,0.3-2.7,0.2
			c-0.6,0.6-1.5,1.1-2.4,1.3c-2.5,0.7-4.1-0.5-4.6-2.1c-0.4-1.5,0.1-2.8,0.8-4.3c0.6-1.4,0.7-2.5,0.3-3.6l-3.6-12l0,0l-0.1-0.5
			c0,0,0,0,0,0c-0.3-1.1-0.9-1.9-2.2-2.8c-1.4-0.9-2.5-1.7-3-3.2c-0.5-1.6,0.2-3.5,2.7-4.3c0.9-0.3,1.9-0.3,2.7-0.2
			c0.6-0.6,1.5-1.1,2.4-1.3c2.5-0.7,4.1,0.5,4.6,2.1c0.4,1.5-0.1,2.8-0.8,4.3c-0.6,1.4-0.7,2.4-0.3,3.5c0,0,0,0,0,0l0.2,0.5l0,0
			l3.5,12C217.4,518.9,218,519.8,219.3,520.6z M220.2,524.2c-0.3-1-1.1-1.7-2.4-2.5c-1.5-1-2.2-2.1-2.4-3.4l-3.5-12l-0.2-0.5
			c-0.5-1.1-0.5-2.5,0.2-4.1c0.6-1.4,0.9-2.4,0.6-3.4c-0.3-1.1-1.2-1.6-2.6-1.3c-0.8,0.2-1.6,0.7-2,1.3c-0.7-0.3-1.6-0.3-2.4,0
			c-1.4,0.4-1.8,1.4-1.5,2.5c0.3,1,1.1,1.7,2.4,2.5c1.5,1,2.2,2.1,2.4,3.4l0.1,0.5l3.6,12c0.5,1.1,0.5,2.5-0.2,4.1
			c-0.6,1.4-0.9,2.4-0.6,3.4c0.3,1.1,1.2,1.6,2.6,1.3c0.8-0.2,1.6-0.7,2-1.3c0.7,0.3,1.6,0.3,2.4,0
			C220.1,526.2,220.6,525.3,220.2,524.2z"/>
		<path id="XMLID_138_" class="st1" d="M88.6,296.4c-4.5-3.9-8.1-7.3-9-12.7c-0.9-6,2.3-12.3,11.4-13.7c3.3-0.5,7-0.3,9.8,0.6
			c2.4-1.7,5.8-3,9.1-3.5c9.1-1.4,14.1,3.6,15.1,9.6c0.8,5.4-1.6,9.8-4.7,14.9c-2.9,4.7-3.6,8.4-2.7,12.4l6.9,43.9l0,0.1l0.2,2
			c0,0,0,0.1,0,0.1c0.4,4,2.2,7.3,6.3,10.8c4.5,3.9,8.1,7.3,9,12.7c0.9,6-2.3,12.3-11.4,13.7c-3.3,0.5-6.9,0.3-9.8-0.6
			c-2.4,1.7-5.8,3-9.1,3.5c-9.1,1.4-14.1-3.6-15.1-9.6c-0.8-5.4,1.6-9.8,4.7-14.9c2.8-4.6,3.6-8.3,2.7-12.2c0,0,0-0.1,0-0.1
			l-0.4-1.9l0-0.1l-6.8-44C94.5,303.3,92.7,300,88.6,296.4z M86.9,283.4c0.6,3.6,3,6.4,7.2,10c4.7,4.1,6.9,8.6,7.1,13l6.7,44.1
			l0.4,1.9c1.2,4.2,0.4,9.1-2.8,14.5c-2.9,4.8-4.4,8.2-3.9,11.7c0.6,4,3.6,6.4,8.6,5.6c2.9-0.4,5.9-1.9,7.6-3.7
			c2.2,1.2,5.5,1.7,8.4,1.2c5-0.9,7.1-4,6.5-8c-0.6-3.6-3-6.4-7.2-10c-4.7-4.1-6.9-8.6-7.1-13l-0.2-2l-7-44
			c-1.1-4.2-0.4-9.1,2.8-14.5c2.9-4.8,4.4-8.2,3.9-11.7c-0.6-4-3.6-6.3-8.6-5.6c-2.9,0.4-5.9,1.9-7.6,3.7c-2.2-1.2-5.5-1.7-8.4-1.2
			C88.4,276.3,86.2,279.4,86.9,283.4z"/>
		<path id="XMLID_149_" class="st1" d="M459.2,195.6c0.8-4.5,1.6-8.2,4.8-10.9c3.6-3,8.9-3.4,13.5,2c1.7,2,2.9,4.4,3.5,6.6
			c2.1,0.9,4.3,2.6,5.9,4.5c4.5,5.4,3.3,10.6-0.3,13.6c-3.2,2.7-7,2.8-11.6,2.8c-4.2,0-6.9,1-9.2,3.1l-25.9,21.9l-0.1,0l-1.2,0.9
			c0,0-0.1,0-0.1,0.1c-2.5,1.9-3.9,4.3-4.6,8.4c-0.8,4.5-1.6,8.2-4.8,10.9c-3.6,3-9,3.4-13.5-2c-1.6-2-2.9-4.4-3.5-6.6
			c-2.1-0.9-4.3-2.6-5.9-4.6c-4.5-5.4-3.3-10.6,0.3-13.6c3.2-2.7,7-2.8,11.6-2.8c4.1,0,6.8-1,9.1-3.1c0,0,0.1,0,0.1-0.1l1.1-1l0.1,0
			l26-21.8C457.1,202.2,458.5,199.7,459.2,195.6z M467,189.3c-2.1,1.8-3,4.5-3.7,8.7c-0.8,4.7-2.9,7.9-5.7,9.7l-26.1,21.9l-1.1,1.1
			c-2.3,2.4-5.8,3.9-10.6,3.9c-4.3,0-7.1,0.4-9.2,2.1c-2.4,2-2.7,4.9-0.3,7.9c1.4,1.7,3.6,3.1,5.4,3.5c0.1,1.9,1.1,4.3,2.5,6
			c2.5,2.9,5.4,3.1,7.8,1.1c2.1-1.8,3-4.5,3.7-8.7c0.8-4.7,2.9-7.9,5.7-9.8l1.2-0.9l25.9-22c2.3-2.4,5.8-3.9,10.6-3.9
			c4.3,0,7.1-0.4,9.2-2.1c2.4-2,2.7-4.9,0.3-7.9c-1.4-1.7-3.6-3.1-5.4-3.5c-0.1-1.9-1.1-4.3-2.5-6
			C472.2,187.5,469.4,187.3,467,189.3z"/>
		<path id="XMLID_160_" class="st1" d="M1518.3,132.4c-3.1,0.2-5.7,0.3-8-1.4c-2.6-1.9-3.7-5.4-0.9-9.3c1-1.4,2.5-2.7,3.8-3.4
			c0.3-1.5,1-3.3,2.1-4.7c2.8-3.9,6.5-3.9,9.1-2c2.3,1.7,3,4.2,3.8,7.2c0.7,2.8,1.8,4.4,3.6,5.6l18.8,13.7l0,0l0.8,0.6
			c0,0,0,0,0.1,0c1.6,1.3,3.5,1.9,6.3,1.7c3.1-0.2,5.7-0.3,8,1.4c2.6,1.9,3.7,5.4,0.9,9.3c-1,1.4-2.5,2.7-3.8,3.4
			c-0.3,1.5-1,3.3-2.1,4.7c-2.8,3.9-6.5,3.9-9.1,2c-2.3-1.7-3-4.2-3.8-7.2c-0.7-2.7-1.7-4.4-3.5-5.5c0,0,0,0-0.1,0l-0.9-0.6l0,0
			l-18.8-13.7C1523,132.7,1521.2,132.1,1518.3,132.4z M1512.9,128.2c1.5,1.1,3.5,1.2,6.4,1c3.3-0.2,5.7,0.6,7.4,2.2l18.8,13.8
			l0.9,0.5c2,1.1,3.5,3.2,4.3,6.4c0.7,2.8,1.4,4.6,2.9,5.8c1.7,1.3,3.7,1,5.3-1.1c0.9-1.2,1.5-2.9,1.4-4.2c1.3-0.4,2.7-1.4,3.6-2.7
			c1.5-2.2,1.2-4.1-0.6-5.3c-1.5-1.1-3.5-1.2-6.4-1c-3.3,0.2-5.7-0.6-7.4-2.2l-0.8-0.7l-18.9-13.7c-2-1.1-3.5-3.2-4.3-6.4
			c-0.7-2.8-1.4-4.7-2.9-5.8c-1.7-1.3-3.7-1-5.3,1.1c-0.9,1.2-1.5,2.9-1.4,4.2c-1.3,0.4-2.7,1.4-3.5,2.7
			C1510.8,125,1511.1,126.9,1512.9,128.2z"/>
		<path id="XMLID_55_" class="st1" d="M1649.1,94.8c-3.1,0.2-5.7,0.3-8-1.4c-2.6-1.9-3.7-5.4-0.9-9.3c1-1.4,2.5-2.7,3.8-3.4
			c0.3-1.5,1-3.3,2.1-4.7c2.8-3.9,6.5-3.9,9.1-2c2.3,1.7,3,4.2,3.8,7.2c0.7,2.8,1.8,4.4,3.6,5.6l18.8,13.7l0,0l0.8,0.6
			c0,0,0,0,0.1,0c1.6,1.3,3.5,1.9,6.3,1.7c3.1-0.2,5.7-0.3,8,1.4c2.6,1.9,3.7,5.4,0.9,9.3c-1,1.4-2.5,2.7-3.8,3.4
			c-0.3,1.5-1,3.3-2.1,4.7c-2.8,3.9-6.5,3.9-9.1,2c-2.3-1.7-3-4.2-3.8-7.2c-0.7-2.7-1.7-4.4-3.5-5.5c0,0,0,0-0.1,0l-0.9-0.6l0,0
			l-18.8-13.7C1653.9,95.2,1652,94.6,1649.1,94.8z M1643.7,90.7c1.5,1.1,3.5,1.2,6.4,1c3.3-0.2,5.7,0.6,7.4,2.2l18.8,13.8l0.9,0.5
			c2,1.1,3.5,3.2,4.3,6.4c0.7,2.8,1.4,4.6,2.9,5.8c1.7,1.3,3.7,1,5.3-1.1c0.9-1.2,1.5-2.9,1.4-4.2c1.3-0.4,2.7-1.4,3.6-2.7
			c1.5-2.2,1.2-4.1-0.6-5.3c-1.5-1.1-3.5-1.2-6.4-1c-3.3,0.2-5.7-0.6-7.4-2.2l-0.8-0.7l-18.9-13.7c-2-1.1-3.5-3.2-4.3-6.4
			c-0.7-2.8-1.4-4.7-2.9-5.8c-1.7-1.3-3.7-1-5.3,1.1c-0.9,1.2-1.5,2.9-1.4,4.2c-1.3,0.4-2.7,1.4-3.5,2.7
			C1641.6,87.5,1642,89.4,1643.7,90.7z"/>
		<path id="XMLID_171_" class="st1" d="M1796.1,302.5c-0.8-0.7-1.4-1.2-1.5-2.1c-0.2-1,0.4-2.1,1.9-2.3c0.6-0.1,1.2-0.1,1.7,0.1
			c0.4-0.3,1-0.5,1.5-0.6c1.5-0.3,2.4,0.6,2.6,1.6c0.2,0.9-0.2,1.7-0.8,2.5c-0.5,0.8-0.6,1.4-0.4,2.1l1.3,7.4l0,0l0,0.3c0,0,0,0,0,0
			c0.1,0.7,0.4,1.2,1.1,1.8c0.8,0.7,1.4,1.2,1.5,2.1c0.2,1-0.4,2.1-1.9,2.3c-0.6,0.1-1.2,0.1-1.7-0.1c-0.4,0.3-1,0.5-1.5,0.6
			c-1.5,0.3-2.4-0.6-2.6-1.6c-0.2-0.9,0.2-1.7,0.8-2.5c0.5-0.8,0.6-1.4,0.4-2.1c0,0,0,0,0,0l-0.1-0.3l0,0l-1.2-7.4
			C1797.1,303.7,1796.8,303.1,1796.1,302.5z M1795.8,300.3c0.1,0.6,0.5,1.1,1.2,1.7c0.8,0.7,1.2,1.4,1.2,2.2l1.2,7.4l0.1,0.3
			c0.2,0.7,0.1,1.5-0.4,2.5c-0.5,0.8-0.7,1.4-0.6,2c0.1,0.7,0.6,1.1,1.5,0.9c0.5-0.1,1-0.3,1.3-0.6c0.4,0.2,0.9,0.3,1.4,0.2
			c0.8-0.2,1.2-0.7,1.1-1.4c-0.1-0.6-0.5-1.1-1.2-1.7c-0.8-0.7-1.2-1.4-1.2-2.2l0-0.3l-1.3-7.4c-0.2-0.7-0.1-1.5,0.4-2.5
			c0.5-0.8,0.7-1.4,0.6-2c-0.1-0.7-0.6-1.1-1.5-0.9c-0.5,0.1-1,0.3-1.3,0.6c-0.4-0.2-0.9-0.3-1.4-0.2
			C1796,299.1,1795.6,299.6,1795.8,300.3z"/>
		<path id="XMLID_62_" class="st1" d="M1777.5,386.9c-0.8-0.7-1.4-1.2-1.5-2.1c-0.2-1,0.4-2.1,1.9-2.3c0.6-0.1,1.2-0.1,1.7,0.1
			c0.4-0.3,1-0.5,1.5-0.6c1.5-0.3,2.4,0.6,2.6,1.6c0.2,0.9-0.2,1.7-0.8,2.5c-0.5,0.8-0.6,1.4-0.4,2.1l1.3,7.4l0,0l0,0.3c0,0,0,0,0,0
			c0.1,0.7,0.4,1.2,1.1,1.8c0.8,0.7,1.4,1.2,1.5,2.1c0.2,1-0.4,2.1-1.9,2.3c-0.6,0.1-1.2,0.1-1.7-0.1c-0.4,0.3-1,0.5-1.5,0.6
			c-1.5,0.3-2.4-0.6-2.6-1.6c-0.2-0.9,0.2-1.7,0.8-2.5c0.5-0.8,0.6-1.4,0.4-2.1c0,0,0,0,0,0l-0.1-0.3l0,0l-1.2-7.4
			C1778.5,388,1778.2,387.5,1777.5,386.9z M1777.2,384.7c0.1,0.6,0.5,1.1,1.2,1.7c0.8,0.7,1.2,1.4,1.2,2.2l1.2,7.4l0.1,0.3
			c0.2,0.7,0.1,1.5-0.4,2.5c-0.5,0.8-0.7,1.4-0.6,2c0.1,0.7,0.6,1.1,1.5,0.9c0.5-0.1,1-0.3,1.3-0.6c0.4,0.2,0.9,0.3,1.4,0.2
			c0.8-0.2,1.2-0.7,1.1-1.4c-0.1-0.6-0.5-1.1-1.2-1.7c-0.8-0.7-1.2-1.4-1.2-2.2l0-0.3l-1.3-7.4c-0.2-0.7-0.1-1.5,0.4-2.5
			c0.5-0.8,0.7-1.4,0.6-2c-0.1-0.7-0.6-1.1-1.5-0.9c-0.5,0.1-1,0.3-1.3,0.6c-0.4-0.2-0.9-0.3-1.4-0.2
			C1777.4,383.5,1777.1,384,1777.2,384.7z"/>
		<path id="XMLID_182_" class="st1" d="M1809.9,534.1c2.7-1.1,5.1-1.8,7.6-1c2.8,1,4.8,3.8,3.3,8.1c-0.5,1.6-1.5,3.1-2.5,4.1
			c0.2,1.4,0,3.2-0.6,4.8c-1.5,4.3-4.8,5.3-7.6,4.3c-2.5-0.9-3.9-2.9-5.4-5.4c-1.4-2.3-2.8-3.5-4.8-4l-20.7-7.1l0,0l-0.9-0.4
			c0,0,0,0-0.1,0c-1.8-0.7-3.7-0.7-6.2,0.3c-2.7,1.1-5.1,1.8-7.6,1c-2.8-1-4.8-3.8-3.3-8.1c0.5-1.6,1.5-3.1,2.5-4.1
			c-0.2-1.4,0-3.2,0.6-4.8c1.5-4.3,4.8-5.3,7.6-4.3c2.5,0.9,3.9,2.9,5.4,5.4c1.4,2.3,2.8,3.4,4.7,4c0,0,0,0,0.1,0l0.9,0.3l0,0
			l20.6,7.2C1805.6,535.1,1807.4,535.1,1809.9,534.1z M1816,536.3c-1.7-0.6-3.5-0.1-6,0.8c-2.9,1.1-5.3,1-7.3,0.1l-20.7-7.2
			l-0.9-0.3c-2.1-0.5-4.1-1.9-5.7-4.5c-1.4-2.4-2.5-3.8-4.2-4.4c-1.9-0.7-3.6,0.1-4.4,2.4c-0.5,1.3-0.5,3-0.1,4.2
			c-1,0.7-2,2-2.5,3.4c-0.8,2.4,0.1,4,2,4.6c1.7,0.6,3.5,0.1,6-0.8c2.9-1.1,5.3-1,7.3-0.1l0.9,0.4l20.7,7.1c2.1,0.5,4.1,1.9,5.7,4.5
			c1.4,2.4,2.5,3.8,4.2,4.4c1.9,0.7,3.6-0.1,4.4-2.4c0.5-1.3,0.5-3,0.1-4.2c1-0.7,2-2,2.5-3.4C1818.7,538.6,1817.9,537,1816,536.3z"
			/>
		<path id="XMLID_193_" class="st1" d="M1197.6,496.1c2.7-0.9,4.9-1.5,7.3-0.5c2.6,1.1,4.4,3.9,2.8,7.9c-0.6,1.5-1.6,2.9-2.6,3.8
			c0.1,1.4-0.2,3.1-0.8,4.5c-1.6,4-4.8,4.8-7.5,3.7c-2.4-1-3.5-3-4.8-5.4c-1.2-2.3-2.5-3.4-4.3-4.1l-19.3-7.8l0,0l-0.8-0.4
			c0,0,0,0-0.1,0c-1.7-0.8-3.5-0.8-5.9-0.1c-2.7,0.9-4.9,1.5-7.3,0.5c-2.6-1.1-4.4-3.9-2.8-7.9c0.6-1.4,1.6-2.9,2.6-3.8
			c-0.1-1.4,0.2-3.1,0.8-4.5c1.6-4,4.8-4.8,7.5-3.7c2.4,1,3.5,3,4.8,5.4c1.2,2.2,2.5,3.4,4.2,4c0,0,0,0,0.1,0l0.9,0.3l0,0l19.2,7.8
			C1193.4,496.8,1195.2,496.9,1197.6,496.1z M1203.2,498.5c-1.6-0.6-3.3-0.3-5.8,0.5c-2.8,0.9-5.1,0.7-6.9-0.3l-19.3-7.9l-0.9-0.3
			c-2-0.5-3.8-2-5.1-4.6c-1.2-2.3-2.2-3.7-3.8-4.4c-1.8-0.7-3.4-0.1-4.3,2.1c-0.5,1.3-0.7,2.8-0.3,3.9c-1,0.6-2,1.8-2.5,3.1
			c-0.9,2.2-0.1,3.8,1.7,4.5c1.6,0.6,3.3,0.3,5.7-0.5c2.8-0.9,5.1-0.7,6.9,0.3l0.8,0.4l19.3,7.8c2,0.6,3.8,2,5.1,4.6
			c1.2,2.3,2.2,3.7,3.8,4.4c1.8,0.7,3.4,0.1,4.3-2.1c0.5-1.3,0.7-2.8,0.3-4c1-0.6,2-1.8,2.5-3.1
			C1205.7,500.8,1205,499.2,1203.2,498.5z"/>
		<path id="XMLID_204_" class="st1" d="M1283.2,199c2.9-1.9,5.5-3.4,8.6-3c3.5,0.5,6.5,3.3,5.8,8.7c-0.3,1.9-1,3.9-1.9,5.4
			c0.6,1.6,0.7,3.8,0.5,5.7c-0.7,5.4-4.3,7.4-7.8,6.9c-3.2-0.4-5.2-2.5-7.6-5c-2.2-2.4-4.1-3.4-6.5-3.5l-25.8-3.3l-0.1,0l-1.1-0.2
			c0,0-0.1,0-0.1,0c-2.3-0.4-4.4,0.1-7.1,1.8c-2.9,1.9-5.5,3.4-8.6,3c-3.5-0.5-6.5-3.3-5.8-8.7c0.3-1.9,1-3.9,1.9-5.4
			c-0.6-1.6-0.7-3.8-0.5-5.7c0.7-5.4,4.3-7.3,7.9-6.9c3.2,0.4,5.2,2.5,7.6,5c2.1,2.3,4.1,3.3,6.4,3.5c0,0,0.1,0,0.1,0l1.2,0.1l0.1,0
			l25.8,3.4C1278.3,201.2,1280.5,200.7,1283.2,199z M1290.7,200.2c-2.1-0.3-4.1,0.7-6.8,2.4c-3.1,2-6,2.5-8.4,1.8l-25.8-3.4
			l-1.2-0.1c-2.6,0-5.2-1.2-7.7-3.9c-2.2-2.4-3.9-3.8-6-4.1c-2.4-0.3-4.1,1-4.6,3.9c-0.2,1.7,0.1,3.6,0.8,4.9c-1,1-1.8,2.8-2.1,4.5
			c-0.3,2.9,1.1,4.6,3.4,4.9c2.1,0.3,4.1-0.7,6.8-2.4c3.1-2,6-2.5,8.4-1.8l1.1,0.2l25.9,3.2c2.6,0,5.2,1.2,7.7,3.9
			c2.2,2.4,3.9,3.8,6,4.1c2.4,0.3,4.2-1,4.6-3.9c0.2-1.7-0.1-3.6-0.8-4.9c1-1,1.8-2.8,2-4.5C1294.5,202.2,1293.1,200.5,1290.7,200.2
			z"/>
		<path id="XMLID_39_" class="st1" d="M1413.9,79.4c2.9-1.9,5.5-3.4,8.6-3c3.5,0.5,6.5,3.3,5.8,8.7c-0.3,1.9-1,3.9-1.9,5.4
			c0.6,1.6,0.7,3.8,0.5,5.7c-0.7,5.4-4.3,7.4-7.8,6.9c-3.2-0.4-5.2-2.5-7.6-5c-2.2-2.4-4.1-3.4-6.5-3.5l-25.8-3.3l-0.1,0L1378,91
			c0,0-0.1,0-0.1,0c-2.3-0.4-4.4,0.1-7.1,1.8c-2.9,1.9-5.5,3.4-8.6,3c-3.5-0.5-6.5-3.3-5.8-8.7c0.3-1.9,1-3.9,1.9-5.4
			c-0.6-1.6-0.7-3.8-0.5-5.7c0.7-5.4,4.3-7.3,7.9-6.9c3.2,0.4,5.2,2.5,7.6,5c2.1,2.3,4.1,3.3,6.4,3.5c0,0,0.1,0,0.1,0l1.2,0.1l0.1,0
			l25.8,3.4C1409,81.6,1411.2,81.1,1413.9,79.4z M1421.4,80.6c-2.1-0.3-4.1,0.7-6.8,2.4c-3.1,2-6,2.5-8.4,1.8l-25.8-3.4l-1.2-0.1
			c-2.6,0-5.2-1.2-7.7-3.9c-2.2-2.4-3.9-3.8-6-4.1c-2.4-0.3-4.1,1-4.6,3.9c-0.2,1.7,0.1,3.6,0.8,4.9c-1,1-1.8,2.8-2.1,4.5
			c-0.3,2.9,1.1,4.6,3.4,4.9c2.1,0.3,4.1-0.7,6.8-2.4c3.1-2,6-2.5,8.4-1.8l1.1,0.2l25.9,3.2c2.6,0,5.2,1.2,7.7,3.9
			c2.2,2.4,3.9,3.8,6,4.1c2.4,0.3,4.2-1,4.6-3.9c0.2-1.7-0.1-3.6-0.8-4.9c1-1,1.8-2.8,2-4.5C1425.2,82.6,1423.8,80.9,1421.4,80.6z"
			/>
		<path id="XMLID_215_" class="st1" d="M1304.4,388.9c-1.6-4.2-2.7-7.7-1.4-11.6c1.5-4.3,5.9-7.3,12.4-5c2.4,0.8,4.7,2.3,6.2,3.9
			c2.2-0.3,4.9,0.1,7.3,0.9c6.5,2.3,8,7.4,6.5,11.7c-1.4,3.9-4.5,5.9-8.4,8.1c-3.5,2.1-5.3,4.2-6.2,7.2l-11,31.4l0,0.1l-0.6,1.4
			c0,0,0,0.1,0,0.1c-1.2,2.8-1.1,5.6,0.3,9.4c1.6,4.2,2.7,7.7,1.4,11.6c-1.5,4.3-5.9,7.3-12.4,5c-2.4-0.8-4.7-2.3-6.2-3.9
			c-2.2,0.3-4.9-0.1-7.3-0.9c-6.5-2.3-8-7.4-6.5-11.7c1.4-3.8,4.5-5.9,8.4-8.1c3.5-2,5.3-4.2,6.1-7.1c0,0,0-0.1,0-0.1l0.4-1.4l0-0.1
			l11.2-31.4C1305.9,395.5,1305.9,392.7,1304.4,388.9z M1307.9,379.7c-0.9,2.5-0.3,5.3,1.2,9.2c1.6,4.4,1.5,8.1,0,11l-11.2,31.4
			l-0.4,1.4c-0.7,3.2-2.9,6.2-7,8.6c-3.6,2.1-5.8,3.8-6.7,6.4c-1,2.9,0.1,5.5,3.7,6.8c2,0.7,4.5,0.8,6.3,0.3c1,1.6,3.1,3.1,5.1,3.8
			c3.6,1.2,6.1-0.1,7.1-3c0.9-2.5,0.3-5.3-1.2-9.2c-1.6-4.4-1.5-8.1,0-11.1l0.6-1.4l11-31.5c0.7-3.2,3-6.2,7-8.6
			c3.6-2.1,5.8-3.8,6.7-6.4c1-2.9-0.1-5.5-3.7-6.8c-2-0.7-4.6-0.8-6.3-0.3c-1-1.6-3.1-3.1-5.1-3.8
			C1311.4,375.5,1308.9,376.8,1307.9,379.7z"/>
		<path id="XMLID_226_" class="st1" d="M1390.3,660c2.9,2,5.2,3.8,6,6.9c0.9,3.5-0.6,7.3-5.8,8.7c-1.9,0.5-4,0.6-5.7,0.3
			c-1.3,1.1-3.2,2.1-5.1,2.6c-5.2,1.4-8.5-1.2-9.4-4.6c-0.8-3.1,0.3-5.8,1.8-9c1.4-2.9,1.6-5.1,0.8-7.4l-6.8-25.2l0-0.1l-0.3-1.1
			c0,0,0-0.1,0-0.1c-0.5-2.3-1.8-4.1-4.4-5.9c-2.9-2-5.2-3.8-6-6.9c-0.9-3.5,0.6-7.3,5.8-8.7c1.9-0.5,4-0.6,5.7-0.3
			c1.3-1.1,3.2-2.1,5.1-2.6c5.2-1.4,8.5,1.2,9.4,4.6c0.8,3.1-0.3,5.8-1.8,9c-1.3,2.9-1.6,5-0.8,7.3c0,0,0,0.1,0,0.1l0.4,1.1l0,0.1
			l6.7,25.2C1386.4,656.4,1387.7,658.2,1390.3,660z M1392.2,667.5c-0.5-2-2.2-3.5-4.9-5.4c-3-2.1-4.5-4.6-4.9-7.1l-6.7-25.2
			l-0.4-1.1c-0.9-2.4-0.8-5.3,0.7-8.6c1.4-3,2.1-5,1.5-7.1c-0.6-2.3-2.5-3.5-5.4-2.7c-1.6,0.4-3.3,1.5-4.2,2.6
			c-1.4-0.6-3.3-0.6-5-0.2c-2.8,0.8-3.9,2.7-3.3,5.1c0.5,2,2.2,3.5,4.9,5.4c3,2.1,4.5,4.6,4.9,7.1l0.2,1.1l6.9,25.2
			c0.9,2.4,0.8,5.3-0.7,8.6c-1.4,3-2.1,5-1.5,7.1c0.6,2.3,2.5,3.5,5.4,2.7c1.6-0.4,3.3-1.5,4.2-2.6c1.4,0.6,3.3,0.6,5,0.2
			C1391.7,671.7,1392.8,669.8,1392.2,667.5z"/>
		<path id="XMLID_237_" class="st1" d="M750.3,559.1c-1.4-0.1-2.6-0.3-3.5-1.2c-1-1-1.3-2.6,0.3-4.2c0.6-0.6,1.3-1,1.9-1.2
			c0.2-0.7,0.7-1.4,1.2-1.9c1.5-1.5,3.2-1.3,4.2-0.3c0.9,0.9,1.1,2.1,1.2,3.5c0.1,1.3,0.5,2.1,1.2,2.7l7.4,7.3l0,0l0.3,0.3
			c0,0,0,0,0,0c0.6,0.7,1.4,1.1,2.7,1.2c1.4,0.1,2.6,0.3,3.5,1.2c1,1,1.3,2.6-0.3,4.2c-0.6,0.6-1.3,1-1.9,1.2
			c-0.2,0.7-0.7,1.4-1.2,1.9c-1.5,1.5-3.2,1.3-4.2,0.3c-0.9-0.9-1.1-2.1-1.2-3.5c-0.1-1.3-0.5-2.1-1.2-2.7c0,0,0,0,0,0l-0.3-0.3l0,0
			l-7.4-7.4C752.4,559.6,751.6,559.2,750.3,559.1z M748.2,556.9c0.6,0.6,1.5,0.8,2.8,0.9c1.5,0.1,2.5,0.7,3.1,1.5l7.4,7.4l0.4,0.3
			c0.8,0.6,1.4,1.7,1.5,3.1c0.1,1.3,0.3,2.2,0.9,2.8c0.7,0.7,1.6,0.7,2.4-0.1c0.5-0.5,0.8-1.2,0.9-1.8c0.6-0.1,1.3-0.5,1.8-0.9
			c0.8-0.9,0.8-1.7,0.1-2.4c-0.6-0.6-1.5-0.8-2.8-0.9c-1.5-0.1-2.5-0.7-3.1-1.5l-0.3-0.4l-7.4-7.3c-0.8-0.6-1.3-1.7-1.5-3.1
			c-0.1-1.3-0.3-2.2-0.9-2.8c-0.7-0.7-1.6-0.7-2.4,0.1c-0.5,0.5-0.8,1.2-0.9,1.8c-0.6,0.1-1.3,0.5-1.8,0.9
			C747.5,555.3,747.5,556.2,748.2,556.9z"/>
		<path id="XMLID_21_" class="st1" d="M650.1,601c-1.4-0.1-2.6-0.3-3.5-1.2c-1-1-1.3-2.6,0.3-4.2c0.6-0.6,1.3-1,1.9-1.2
			c0.2-0.7,0.7-1.4,1.2-1.9c1.5-1.5,3.2-1.3,4.2-0.3c0.9,0.9,1.1,2.1,1.2,3.5c0.1,1.3,0.5,2.1,1.2,2.7l7.4,7.3l0,0l0.3,0.3
			c0,0,0,0,0,0c0.6,0.7,1.4,1.1,2.7,1.2c1.4,0.1,2.6,0.3,3.5,1.2c1,1,1.3,2.6-0.3,4.2c-0.6,0.6-1.3,1-1.9,1.2
			c-0.2,0.7-0.7,1.4-1.2,1.9c-1.5,1.5-3.2,1.3-4.2,0.3c-0.9-0.9-1.1-2.1-1.2-3.5c-0.1-1.3-0.5-2.1-1.2-2.7c0,0,0,0,0,0l-0.3-0.3l0,0
			l-7.4-7.4C652.2,601.5,651.4,601.1,650.1,601z M648,598.8c0.6,0.6,1.5,0.8,2.8,0.9c1.5,0.1,2.5,0.7,3.1,1.5l7.4,7.4l0.4,0.3
			c0.8,0.6,1.4,1.7,1.5,3.1c0.1,1.3,0.3,2.2,0.9,2.8c0.7,0.7,1.6,0.7,2.4-0.1c0.5-0.5,0.8-1.2,0.9-1.8c0.6-0.1,1.3-0.5,1.8-0.9
			c0.8-0.9,0.8-1.7,0.1-2.4c-0.6-0.6-1.5-0.8-2.8-0.9c-1.5-0.1-2.5-0.7-3.1-1.5l-0.3-0.4l-7.4-7.3c-0.8-0.6-1.3-1.7-1.5-3.1
			c-0.1-1.3-0.3-2.2-0.9-2.8c-0.7-0.7-1.6-0.7-2.4,0.1c-0.5,0.5-0.8,1.2-0.9,1.8c-0.6,0.1-1.3,0.5-1.8,0.9
			C647.3,597.3,647.3,598.1,648,598.8z"/>
		<path id="XMLID_248_" class="st1" d="M697.3,288c0.4-0.9,0.8-1.7,0.7-2.6c-0.1-1.1-0.7-2-1.9-1.8c-0.4,0.1-0.9,0.3-1.2,0.6
			c-0.4-0.2-0.8-0.2-1.3-0.2c-1.2,0.2-1.6,1.3-1.6,2.4c0.1,1,0.5,1.6,1.1,2.4c0.5,0.7,0.7,1.3,0.8,2l0.7,8l0,0l0,0.4c0,0,0,0,0,0
			c0.1,0.7,0,1.4-0.4,2.2c-0.4,0.9-0.8,1.7-0.7,2.6c0.1,1.1,0.7,2,1.9,1.8c0.4-0.1,0.9-0.3,1.2-0.6c0.4,0.2,0.8,0.2,1.3,0.2
			c1.2-0.2,1.6-1.3,1.6-2.4c-0.1-1-0.5-1.6-1.1-2.4c-0.5-0.7-0.7-1.3-0.8-2c0,0,0,0,0,0l0-0.4l0,0l-0.7-8
			C696.8,289.5,696.9,288.8,697.3,288z M697,285.6c0.1,0.6-0.2,1.2-0.6,2.1c-0.4,0.9-0.6,1.8-0.4,2.6l0.7,8l0,0.4
			c0,0.8,0.3,1.6,0.8,2.4c0.5,0.7,0.8,1.2,0.9,1.9c0.1,0.7-0.2,1.3-0.9,1.4c-0.4,0.1-0.8,0-1.1-0.3c-0.2,0.3-0.6,0.6-1,0.6
			c-0.7,0.1-1-0.3-1.1-1.1c-0.1-0.6,0.2-1.2,0.6-2.1c0.4-0.9,0.6-1.8,0.4-2.6l0-0.4l-0.6-8c0-0.8-0.3-1.6-0.9-2.4
			c-0.5-0.7-0.8-1.2-0.9-1.9c-0.1-0.7,0.2-1.3,0.9-1.4c0.4-0.1,0.8,0,1.1,0.3c0.2-0.3,0.6-0.6,1-0.6
			C696.6,284.5,697,284.9,697,285.6z"/>
		<path id="XMLID_259_" class="st1" d="M725.5,84.2c-5-2.1-9.1-4-11.3-8.4c-2.5-4.9-1.5-11.3,6-15.1c2.7-1.4,5.9-2.2,8.6-2.3
			c1.6-2.1,4.2-4.2,6.9-5.6c7.5-3.8,13.2-0.9,15.7,4c2.3,4.4,1.4,8.9,0.2,14.1c-1.1,4.8-0.7,8.2,1.2,11.4l18.4,35.9l0,0.1l0.8,1.6
			c0,0,0,0.1,0.1,0.1c1.5,3.3,4,5.6,8.5,7.5c5,2.1,9.1,4,11.3,8.4c2.5,4.9,1.5,11.3-6,15.1c-2.7,1.4-5.9,2.2-8.6,2.2
			c-1.6,2.1-4.2,4.2-6.9,5.6c-7.5,3.8-13.2,0.9-15.7-4c-2.2-4.4-1.4-8.8-0.2-14.1c1.1-4.8,0.7-8.1-1.1-11.3c0,0,0-0.1-0.1-0.1
			l-0.9-1.6l0-0.1l-18.3-36C732.5,88.5,730,86.2,725.5,84.2z M720.3,73.5c1.5,2.9,4.4,4.6,9.1,6.6c5.2,2.2,8.4,5.5,9.7,9.2
			l18.2,36.1l0.9,1.5c2.2,3.3,3,7.7,1.7,13.3c-1.2,4.9-1.5,8.3,0,11.2c1.7,3.3,4.9,4.5,9,2.4c2.3-1.2,4.5-3.3,5.5-5.4
			c2.3,0.4,5.2-0.1,7.6-1.3c4.1-2.1,5-5.4,3.3-8.7c-1.5-2.9-4.4-4.6-9.1-6.6c-5.2-2.2-8.4-5.5-9.8-9.2L766,121L747.5,85
			c-2.2-3.3-3-7.7-1.7-13.3c1.2-4.9,1.5-8.3,0-11.2c-1.7-3.3-4.9-4.5-9-2.4c-2.3,1.2-4.5,3.3-5.5,5.4c-2.3-0.4-5.2,0.1-7.6,1.3
			C719.6,67,718.7,70.2,720.3,73.5z"/>
		<path id="XMLID_270_" class="st1" d="M915.6,326.8c4.6-1.5,8.5-2.7,12.6-1c4.6,1.8,7.7,6.7,4.9,13.7c-1,2.5-2.7,5-4.4,6.6
			c0.2,2.4-0.3,5.3-1.3,7.8c-2.8,7-8.3,8.4-12.9,6.6c-4.1-1.6-6.2-5.1-8.5-9.4c-2.1-3.9-4.4-6-7.6-7l-33.6-13.2l-0.1,0l-1.5-0.7
			c0,0-0.1,0-0.1,0c-3-1.4-6-1.4-10.2,0c-4.6,1.5-8.5,2.7-12.6,1c-4.6-1.8-7.7-6.7-4.9-13.7c1-2.5,2.7-5,4.4-6.6
			c-0.2-2.4,0.3-5.3,1.3-7.9c2.8-7,8.3-8.4,12.9-6.6c4.1,1.6,6.2,5.1,8.5,9.4c2.1,3.9,4.3,5.9,7.4,6.9c0,0,0.1,0,0.1,0l1.5,0.5
			l0.1,0l33.6,13.4C908.3,328.2,911.4,328.3,915.6,326.8z M925.4,331c-2.7-1.1-5.7-0.5-10,1c-4.8,1.6-8.9,1.3-12-0.4l-33.6-13.4
			l-1.5-0.5c-3.4-0.9-6.6-3.4-9-7.9c-2.1-4-3.9-6.5-6.6-7.5c-3.1-1.2-5.9-0.1-7.5,3.7c-0.9,2.2-1.1,4.9-0.5,6.9
			c-1.8,1.1-3.4,3.2-4.3,5.4c-1.5,3.8-0.2,6.6,2.9,7.8c2.7,1.1,5.7,0.5,10-1c4.8-1.6,8.9-1.3,12,0.4l1.5,0.7l33.7,13.2
			c3.4,0.9,6.6,3.4,9,7.9c2.1,4,3.9,6.5,6.6,7.5c3.1,1.2,5.9,0.1,7.5-3.7c0.9-2.2,1.1-4.9,0.5-6.9c1.8-1.1,3.4-3.2,4.3-5.4
			C929.7,335,928.4,332.2,925.4,331z"/>
		<path id="XMLID_281_" class="st1" d="M278.7,425.8c-0.5,2.6-1.1,4.7-3,6.2c-2.1,1.7-5.3,1.8-7.8-1.5c-0.9-1.2-1.6-2.6-1.9-3.9
			c-1.2-0.6-2.4-1.6-3.3-2.8c-2.5-3.2-1.7-6.2,0.5-7.9c1.9-1.5,4.1-1.5,6.8-1.4c2.4,0.1,4-0.4,5.4-1.6l15.5-12.2l0,0l0.7-0.5
			c0,0,0,0,0.1,0c1.5-1,2.3-2.4,2.8-4.8c0.5-2.6,1.1-4.7,3-6.2c2.1-1.7,5.3-1.8,7.8,1.5c0.9,1.2,1.6,2.6,1.9,3.9
			c1.2,0.6,2.4,1.6,3.3,2.8c2.5,3.2,1.7,6.2-0.5,7.9c-1.9,1.5-4.1,1.5-6.8,1.4c-2.4-0.1-4,0.4-5.3,1.6c0,0,0,0-0.1,0l-0.7,0.6l0,0
			L281.6,421C280.1,422,279.2,423.5,278.7,425.8z M274.1,429.3c1.3-1,1.8-2.5,2.3-5c0.6-2.7,1.9-4.5,3.5-5.5l15.6-12.1l0.7-0.6
			c1.4-1.4,3.4-2.1,6.2-2.1c2.5,0.1,4.1,0,5.4-1c1.4-1.1,1.7-2.8,0.3-4.6c-0.8-1-2-1.9-3.1-2.2c0-1.1-0.6-2.5-1.3-3.5
			c-1.4-1.7-3.1-1.9-4.5-0.8c-1.3,1-1.8,2.5-2.3,5c-0.6,2.7-1.9,4.5-3.5,5.5l-0.7,0.5l-15.5,12.2c-1.4,1.4-3.4,2.1-6.2,2
			c-2.5-0.1-4.1,0.1-5.4,1c-1.4,1.1-1.7,2.8-0.3,4.6c0.8,1,2,1.9,3.1,2.2c0,1.1,0.6,2.5,1.3,3.5C271,430.3,272.6,430.4,274.1,429.3z
			"/>
		<path id="XMLID_292_" class="st1" d="M117.5,596.8c-4.5,0.9-8.3,1.4-12-0.6c-4.1-2.3-6.4-7.2-2.9-13.5c1.3-2.3,3.1-4.3,5-5.6
			c0.1-2.3,0.9-5,2.2-7.2c3.5-6.2,8.9-6.9,13-4.6c3.7,2.1,5.2,5.6,6.8,9.9c1.5,4,3.4,6.1,6.2,7.5l29.9,16.7l0.1,0l1.3,0.8
			c0,0,0.1,0,0.1,0.1c2.6,1.7,5.5,2.1,9.6,1.3c4.5-0.9,8.3-1.4,12,0.6c4.1,2.3,6.4,7.3,2.9,13.5c-1.3,2.2-3.1,4.3-5,5.6
			c-0.1,2.3-0.9,5-2.2,7.2c-3.5,6.2-8.9,6.9-13,4.6c-3.7-2.1-5.2-5.6-6.8-9.9c-1.5-3.9-3.3-6.1-6.1-7.5c0,0-0.1,0-0.1-0.1l-1.4-0.7
			l-0.1,0l-29.8-16.8C124.5,596.5,121.6,596,117.5,596.8z M108.8,591.7c2.4,1.4,5.3,1.2,9.5,0.4c4.7-0.9,8.5-0.1,11.2,1.9l29.9,16.9
			l1.4,0.7c3.1,1.3,5.7,4.1,7.5,8.6c1.5,4,2.8,6.6,5.3,7.9c2.7,1.5,5.6,0.8,7.5-2.5c1.1-1.9,1.7-4.5,1.4-6.4
			c1.8-0.8,3.6-2.6,4.7-4.5c1.9-3.4,1-6.2-1.8-7.7c-2.4-1.4-5.3-1.2-9.5-0.4c-4.7,0.9-8.5,0.1-11.2-1.9l-1.3-0.9l-30-16.7
			c-3.1-1.3-5.7-4.1-7.5-8.6c-1.5-4-2.8-6.6-5.3-7.9c-2.7-1.5-5.6-0.8-7.5,2.5c-1.1,1.9-1.7,4.5-1.4,6.4c-1.8,0.8-3.6,2.6-4.7,4.5
			C105.2,587.4,106.1,590.1,108.8,591.7z"/>
		<path id="XMLID_303_" class="st1" d="M1226.9,307.6c-3.4,1.7-6.3,3-9.7,2.2c-3.8-0.9-6.7-4.4-5.3-10.1c0.5-2.1,1.5-4.2,2.7-5.6
			c-0.4-1.8-0.4-4.2,0.2-6.2c1.4-5.7,5.6-7.4,9.3-6.5c3.4,0.8,5.4,3.3,7.6,6.4c2.1,2.8,4,4.2,6.6,4.6l27.5,6.7l0.1,0l1.2,0.3
			c0,0,0.1,0,0.1,0c2.5,0.7,4.8,0.5,7.9-1.1c3.4-1.7,6.3-3,9.7-2.2c3.8,0.9,6.7,4.4,5.3,10.1c-0.5,2.1-1.5,4.2-2.7,5.6
			c0.4,1.8,0.4,4.2-0.2,6.2c-1.4,5.7-5.5,7.4-9.3,6.5c-3.4-0.8-5.3-3.3-7.6-6.4c-2-2.8-4-4.1-6.5-4.6c0,0-0.1,0-0.1,0l-1.2-0.2
			l-0.1,0l-27.5-6.8C1232.4,305.8,1230.1,306,1226.9,307.6z M1218.9,305.4c2.2,0.5,4.5-0.2,7.7-1.8c3.6-1.8,6.7-1.9,9.3-1l27.6,6.8
			l1.3,0.2c2.8,0.4,5.5,2,7.8,5.2c2.1,2.9,3.7,4.6,6,5.1c2.5,0.6,4.6-0.6,5.4-3.7c0.4-1.8,0.3-3.9-0.3-5.4c1.2-1,2.3-2.9,2.8-4.6
			c0.7-3.1-0.6-5.1-3.1-5.8c-2.2-0.5-4.5,0.2-7.7,1.8c-3.6,1.8-6.7,1.9-9.3,1l-1.2-0.4l-27.6-6.6c-2.8-0.4-5.5-2-7.8-5.2
			c-2.1-2.9-3.7-4.6-6-5.1c-2.5-0.6-4.6,0.6-5.4,3.7c-0.4,1.8-0.3,3.9,0.3,5.4c-1.2,1-2.3,2.9-2.8,4.6
			C1215.1,302.8,1216.4,304.8,1218.9,305.4z"/>
		<path id="XMLID_314_" class="st1" d="M1805.6,173.7c0.2-0.9,0.4-1.7,1.1-2.2c0.8-0.6,1.9-0.6,2.8,0.6c0.3,0.4,0.5,1,0.6,1.4
			c0.4,0.2,0.8,0.6,1.2,1c0.9,1.2,0.5,2.3-0.3,2.8c-0.7,0.5-1.5,0.5-2.4,0.4c-0.9-0.1-1.4,0.1-1.9,0.5l-5.7,4.2l0,0l-0.3,0.2
			c0,0,0,0,0,0c-0.5,0.4-0.9,0.8-1.1,1.7c-0.2,0.9-0.4,1.7-1.1,2.2c-0.8,0.6-1.9,0.6-2.8-0.6c-0.3-0.4-0.5-1-0.6-1.4
			c-0.4-0.2-0.8-0.6-1.2-1c-0.9-1.2-0.5-2.3,0.3-2.8c0.7-0.5,1.5-0.5,2.4-0.4c0.9,0.1,1.4-0.1,1.9-0.5c0,0,0,0,0,0l0.2-0.2l0,0
			l5.7-4.1C1805.1,175,1805.4,174.5,1805.6,173.7z M1807.3,172.5c-0.5,0.3-0.7,0.9-0.9,1.7c-0.2,1-0.7,1.6-1.3,1.9l-5.7,4.1
			l-0.2,0.2c-0.5,0.5-1.3,0.7-2.2,0.7c-0.9-0.1-1.5,0-1.9,0.3c-0.5,0.4-0.6,1-0.2,1.6c0.3,0.4,0.7,0.7,1.1,0.8
			c0,0.4,0.2,0.9,0.4,1.3c0.5,0.6,1.1,0.7,1.6,0.3c0.5-0.3,0.7-0.9,0.9-1.7c0.2-1,0.7-1.6,1.3-1.9l0.3-0.2l5.7-4.2
			c0.5-0.5,1.3-0.7,2.2-0.7c0.9,0.1,1.5,0,1.9-0.3c0.5-0.4,0.6-1,0.2-1.6c-0.3-0.4-0.7-0.7-1.1-0.8c0-0.4-0.2-0.9-0.4-1.3
			C1808.5,172.2,1807.9,172.1,1807.3,172.5z"/>
		<path id="XMLID_325_" class="st1" d="M1513.6,313.3c0.3-0.8,0.6-1.5,1.3-1.9c0.8-0.4,1.8-0.3,2.4,0.9c0.2,0.4,0.4,0.9,0.4,1.4
			c0.4,0.2,0.7,0.6,0.9,1.1c0.6,1.2,0.2,2.1-0.6,2.5c-0.7,0.4-1.4,0.3-2.3,0.1c-0.8-0.2-1.3-0.1-1.8,0.2l-5.7,3.1l0,0l-0.3,0.1
			c0,0,0,0,0,0c-0.5,0.3-0.9,0.7-1.2,1.4c-0.3,0.8-0.6,1.5-1.3,1.9c-0.8,0.4-1.8,0.3-2.5-0.9c-0.2-0.4-0.4-0.9-0.4-1.4
			c-0.4-0.2-0.7-0.6-0.9-1.1c-0.6-1.2-0.2-2.1,0.6-2.5c0.7-0.4,1.4-0.3,2.3-0.1c0.8,0.2,1.3,0.1,1.8-0.2c0,0,0,0,0,0l0.2-0.2l0,0
			l5.7-3.1C1512.9,314.5,1513.3,314.1,1513.6,313.3z M1515.3,312.5c-0.5,0.3-0.7,0.7-1,1.5c-0.3,0.9-0.8,1.4-1.4,1.6l-5.7,3.1
			l-0.2,0.2c-0.5,0.4-1.2,0.5-2.1,0.3c-0.8-0.2-1.3-0.2-1.8,0.1c-0.5,0.3-0.7,0.8-0.3,1.5c0.2,0.4,0.6,0.7,0.9,0.9
			c-0.1,0.4,0,0.8,0.3,1.2c0.4,0.6,0.9,0.8,1.4,0.5c0.5-0.3,0.7-0.7,1-1.5c0.3-0.9,0.8-1.4,1.4-1.6l0.3-0.1l5.7-3.2
			c0.5-0.4,1.2-0.5,2.1-0.3c0.8,0.2,1.3,0.2,1.8-0.1c0.5-0.3,0.7-0.8,0.3-1.5c-0.2-0.4-0.6-0.7-0.9-0.9c0.1-0.4,0-0.8-0.3-1.2
			C1516.3,312.3,1515.8,312.2,1515.3,312.5z"/>
		<path id="XMLID_78_" class="st1" d="M773.3,633.1c0.3-0.8,0.6-1.5,1.3-1.9c0.8-0.4,1.8-0.3,2.4,0.9c0.2,0.4,0.4,0.9,0.4,1.4
			c0.4,0.2,0.7,0.6,0.9,1.1c0.6,1.2,0.2,2.1-0.6,2.5c-0.7,0.4-1.4,0.3-2.3,0.1c-0.8-0.2-1.3-0.1-1.8,0.2l-5.7,3.1l0,0l-0.3,0.1
			c0,0,0,0,0,0c-0.5,0.3-0.9,0.7-1.2,1.4c-0.3,0.8-0.6,1.5-1.3,1.9c-0.8,0.4-1.8,0.3-2.5-0.9c-0.2-0.4-0.4-0.9-0.4-1.4
			c-0.4-0.2-0.7-0.6-0.9-1.1c-0.6-1.2-0.2-2.1,0.6-2.5c0.7-0.4,1.4-0.3,2.3-0.1c0.8,0.2,1.3,0.1,1.8-0.2c0,0,0,0,0,0l0.2-0.2l0,0
			l5.7-3.1C772.6,634.2,773,633.8,773.3,633.1z M775,632.2c-0.5,0.3-0.7,0.7-1,1.5c-0.3,0.9-0.8,1.4-1.4,1.6l-5.7,3.1l-0.2,0.2
			c-0.5,0.4-1.2,0.5-2.1,0.3c-0.8-0.2-1.3-0.2-1.8,0.1c-0.5,0.3-0.7,0.8-0.3,1.5c0.2,0.4,0.6,0.7,0.9,0.9c-0.1,0.4,0,0.8,0.3,1.2
			c0.4,0.6,0.9,0.8,1.4,0.5c0.5-0.3,0.7-0.7,1-1.5c0.3-0.9,0.8-1.4,1.4-1.6l0.3-0.1l5.7-3.2c0.5-0.4,1.2-0.5,2.1-0.3
			c0.8,0.2,1.3,0.2,1.8-0.1c0.5-0.3,0.7-0.8,0.3-1.5c-0.2-0.4-0.6-0.7-0.9-0.9c0.1-0.4,0-0.8-0.3-1.2
			C776,632.1,775.5,631.9,775,632.2z"/>
		<path id="XMLID_81_" class="st1" d="M339.9,263.1c0.3-0.8,0.6-1.5,1.3-1.9c0.8-0.4,1.8-0.3,2.4,0.9c0.2,0.4,0.4,0.9,0.4,1.4
			c0.4,0.2,0.7,0.6,0.9,1.1c0.6,1.2,0.2,2.1-0.6,2.5c-0.7,0.4-1.4,0.3-2.3,0.1c-0.8-0.2-1.3-0.1-1.8,0.2l-5.7,3.1l0,0l-0.3,0.1
			c0,0,0,0,0,0c-0.5,0.3-0.9,0.7-1.2,1.4c-0.3,0.8-0.6,1.5-1.3,1.9c-0.8,0.4-1.8,0.3-2.5-0.9c-0.2-0.4-0.4-0.9-0.4-1.4
			c-0.4-0.2-0.7-0.6-0.9-1.1c-0.6-1.2-0.2-2.1,0.6-2.5c0.7-0.4,1.4-0.3,2.3-0.1c0.8,0.2,1.3,0.1,1.8-0.2c0,0,0,0,0,0l0.2-0.2l0,0
			l5.7-3.1C339.3,264.2,339.6,263.8,339.9,263.1z M341.6,262.2c-0.5,0.3-0.7,0.7-1,1.5c-0.3,0.9-0.8,1.4-1.4,1.6l-5.7,3.1l-0.2,0.2
			c-0.5,0.4-1.2,0.5-2.1,0.3c-0.8-0.2-1.3-0.2-1.8,0.1c-0.5,0.3-0.7,0.8-0.3,1.5c0.2,0.4,0.6,0.7,0.9,0.9c-0.1,0.4,0,0.8,0.3,1.2
			c0.4,0.6,0.9,0.8,1.4,0.5c0.5-0.3,0.7-0.7,1-1.5c0.3-0.9,0.8-1.4,1.4-1.6l0.3-0.1l5.7-3.2c0.5-0.4,1.2-0.5,2.1-0.3
			c0.8,0.2,1.3,0.2,1.8-0.1c0.5-0.3,0.7-0.8,0.3-1.5c-0.2-0.4-0.6-0.7-0.9-0.9c0.1-0.4,0-0.8-0.3-1.2
			C342.6,262.1,342.1,261.9,341.6,262.2z"/>
		<path id="XMLID_75_" class="st1" d="M843.9,120.4c0.3-0.8,0.6-1.5,1.3-1.9c0.8-0.4,1.8-0.3,2.4,0.9c0.2,0.4,0.4,0.9,0.4,1.4
			c0.4,0.2,0.7,0.6,0.9,1.1c0.6,1.2,0.2,2.1-0.6,2.5c-0.7,0.4-1.4,0.3-2.3,0.1c-0.8-0.2-1.3-0.1-1.8,0.2l-5.7,3.1l0,0l-0.3,0.1
			c0,0,0,0,0,0c-0.5,0.3-0.9,0.7-1.2,1.4c-0.3,0.8-0.6,1.5-1.3,1.9c-0.8,0.4-1.8,0.3-2.5-0.9c-0.2-0.4-0.4-0.9-0.4-1.4
			c-0.4-0.2-0.7-0.6-0.9-1.1c-0.6-1.2-0.2-2.1,0.6-2.5c0.7-0.4,1.4-0.3,2.3-0.1c0.8,0.2,1.3,0.1,1.8-0.2c0,0,0,0,0,0l0.2-0.2l0,0
			l5.7-3.1C843.2,121.5,843.6,121.1,843.9,120.4z M845.6,119.5c-0.5,0.3-0.7,0.7-1,1.5c-0.3,0.9-0.8,1.4-1.4,1.6l-5.7,3.1l-0.2,0.2
			c-0.5,0.4-1.2,0.5-2.1,0.3c-0.8-0.2-1.3-0.2-1.8,0.1c-0.5,0.3-0.7,0.8-0.3,1.5c0.2,0.4,0.6,0.7,0.9,0.9c-0.1,0.4,0,0.8,0.3,1.2
			c0.4,0.6,0.9,0.8,1.4,0.5c0.5-0.3,0.7-0.7,1-1.5c0.3-0.9,0.8-1.4,1.4-1.6l0.3-0.1l5.7-3.2c0.5-0.4,1.2-0.5,2.1-0.3
			c0.8,0.2,1.3,0.2,1.8-0.1c0.5-0.3,0.7-0.8,0.3-1.5c-0.2-0.4-0.6-0.7-0.9-0.9c0.1-0.4,0-0.8-0.3-1.2
			C846.6,119.3,846.1,119.2,845.6,119.5z"/>
		<path id="XMLID_68_" class="st1" d="M996.2,268.6c0.3-0.8,0.6-1.5,1.3-1.9c0.8-0.4,1.8-0.3,2.4,0.9c0.2,0.4,0.4,0.9,0.4,1.4
			c0.4,0.2,0.7,0.6,0.9,1.1c0.6,1.2,0.2,2.1-0.6,2.5c-0.7,0.4-1.4,0.3-2.3,0.1c-0.8-0.2-1.3-0.1-1.8,0.2l-5.7,3.1l0,0l-0.3,0.1
			c0,0,0,0,0,0c-0.5,0.3-0.9,0.7-1.2,1.4c-0.3,0.8-0.6,1.5-1.3,1.9c-0.8,0.4-1.8,0.3-2.5-0.9c-0.2-0.4-0.4-0.9-0.4-1.4
			c-0.4-0.2-0.7-0.6-0.9-1.1c-0.6-1.2-0.2-2.1,0.6-2.5c0.7-0.4,1.4-0.3,2.3-0.1c0.8,0.2,1.3,0.1,1.8-0.2c0,0,0,0,0,0l0.2-0.2l0,0
			l5.7-3.1C995.5,269.8,995.9,269.4,996.2,268.6z M997.9,267.8c-0.5,0.3-0.7,0.7-1,1.5c-0.3,0.9-0.8,1.4-1.4,1.6l-5.7,3.1l-0.2,0.2
			c-0.5,0.4-1.2,0.5-2.1,0.3c-0.8-0.2-1.3-0.2-1.8,0.1c-0.5,0.3-0.7,0.8-0.3,1.5c0.2,0.4,0.6,0.7,0.9,0.9c-0.1,0.4,0,0.8,0.3,1.2
			c0.4,0.6,0.9,0.8,1.4,0.5c0.5-0.3,0.7-0.7,1-1.5c0.3-0.9,0.8-1.4,1.4-1.6l0.3-0.1l5.7-3.2c0.5-0.4,1.2-0.5,2.1-0.3
			c0.8,0.2,1.3,0.2,1.8-0.1c0.5-0.3,0.7-0.8,0.3-1.5c-0.2-0.4-0.6-0.7-0.9-0.9c0.1-0.4,0-0.8-0.3-1.2
			C998.9,267.6,998.4,267.5,997.9,267.8z"/>
		<path id="XMLID_336_" class="st1" d="M1248.7,68.6c-0.4,0.6-0.7,1.1-1.3,1.3c-0.7,0.2-1.5,0-1.8-1c-0.1-0.4-0.2-0.8-0.1-1.2
			c-0.2-0.2-0.5-0.6-0.6-1c-0.4-1,0.1-1.7,0.8-2c0.6-0.2,1.2,0,1.8,0.2c0.6,0.2,1,0.2,1.5,0.1l5-1.7l0,0l0.2-0.1c0,0,0,0,0,0
			c0.5-0.1,0.8-0.4,1.1-1c0.4-0.6,0.7-1.1,1.3-1.3c0.7-0.2,1.5,0,1.8,1c0.1,0.4,0.2,0.8,0.1,1.1c0.2,0.2,0.5,0.6,0.6,1
			c0.4,1-0.1,1.7-0.8,2c-0.6,0.2-1.2,0-1.8-0.2c-0.6-0.2-1-0.2-1.5-0.1c0,0,0,0,0,0l-0.2,0.1l0,0l-5,1.7
			C1249.3,67.8,1249,68.1,1248.7,68.6z M1247.2,69.1c0.4-0.1,0.7-0.5,1-1.1c0.4-0.6,0.9-1,1.4-1.1l5-1.7l0.2-0.1
			c0.5-0.2,1.1-0.2,1.7,0c0.6,0.2,1,0.3,1.4,0.2c0.5-0.2,0.7-0.5,0.5-1.1c-0.1-0.3-0.3-0.6-0.6-0.8c0.1-0.3,0.1-0.7,0-1
			c-0.2-0.6-0.6-0.7-1.1-0.6c-0.4,0.1-0.7,0.5-1,1.1c-0.4,0.6-0.9,1-1.4,1.1l-0.2,0.1l-5,1.7c-0.5,0.2-1.1,0.2-1.7,0
			c-0.6-0.2-1-0.3-1.4-0.2c-0.5,0.2-0.7,0.6-0.5,1.1c0.1,0.3,0.3,0.6,0.6,0.8c-0.1,0.3-0.1,0.7,0,1
			C1246.3,69.1,1246.7,69.3,1247.2,69.1z"/>
		<path id="XMLID_346_" class="st1" d="M1040,101.2c5,1.6,9.1,3.1,11.6,7.1c2.8,4.5,2.4,10.6-4.4,14.9c-2.5,1.6-5.5,2.6-8,2.9
			c-1.3,2.2-3.6,4.4-6.1,6c-6.8,4.3-12.5,2.1-15.4-2.4c-2.5-4-2.1-8.4-1.4-13.5c0.7-4.7,0-7.9-2.1-10.8l-20.8-32.7l0-0.1l-0.9-1.5
			c0,0,0-0.1-0.1-0.1c-1.7-3.1-4.3-5-8.8-6.5c-5-1.6-9.1-3.1-11.6-7.1c-2.8-4.5-2.4-10.7,4.4-15c2.5-1.6,5.5-2.6,8-2.9
			c1.4-2.2,3.6-4.4,6.1-6c6.8-4.3,12.5-2.1,15.4,2.5c2.5,4,2.1,8.3,1.4,13.5c-0.6,4.7,0,7.8,2.1,10.7c0,0,0,0.1,0.1,0.1l1,1.4l0,0.1
			l20.7,32.8C1032.9,97.8,1035.5,99.8,1040,101.2z M1045.9,111c-1.7-2.7-4.6-4-9.3-5.5c-5.2-1.7-8.5-4.5-10.1-7.9l-20.7-32.9l-1-1.4
			c-2.4-3-3.5-7.1-2.8-12.6c0.7-4.8,0.7-8.1-1-10.7c-1.9-3-5.1-3.8-8.8-1.5c-2.1,1.3-4,3.6-4.8,5.6c-2.2-0.2-5,0.6-7.1,2
			c-3.7,2.4-4.3,5.6-2.4,8.6c1.7,2.7,4.6,4,9.3,5.5c5.2,1.7,8.5,4.5,10.2,7.9l0.8,1.5l20.9,32.8c2.4,3,3.5,7.1,2.8,12.6
			c-0.7,4.8-0.7,8.1,1,10.7c1.9,3,5.1,3.8,8.8,1.5c2.1-1.4,4.1-3.6,4.8-5.6c2.2,0.2,5-0.6,7.1-1.9
			C1047.2,117.2,1047.8,114,1045.9,111z"/>
		<path id="XMLID_347_" class="st1" d="M147,133.9c1.2,2.8,2.2,5.2,1.4,7.8c-0.9,3-3.7,5.2-8.2,3.9c-1.6-0.5-3.3-1.4-4.4-2.4
			c-1.5,0.3-3.3,0.1-5-0.3c-4.5-1.3-5.7-4.7-4.9-7.7c0.8-2.7,2.8-4.2,5.4-5.8c2.3-1.5,3.5-3.1,3.9-5.1l6.3-21.8l0,0l0.3-1
			c0,0,0,0,0-0.1c0.7-1.9,0.5-3.8-0.6-6.4c-1.2-2.8-2.2-5.2-1.4-7.8c0.9-3,3.7-5.2,8.3-3.9c1.6,0.5,3.3,1.4,4.4,2.4
			c1.5-0.3,3.3-0.1,5,0.4c4.5,1.3,5.7,4.7,4.9,7.7c-0.8,2.7-2.8,4.2-5.4,5.8c-2.3,1.5-3.4,3-3.9,5c0,0,0,0,0,0.1l-0.2,1l0,0
			l-6.4,21.7C145.7,129.4,145.8,131.3,147,133.9z M144.9,140.2c0.5-1.8,0-3.6-1.2-6.2c-1.3-2.9-1.3-5.5-0.4-7.5l6.5-21.8l0.2-1
			c0.4-2.2,1.8-4.3,4.4-6.1c2.4-1.6,3.8-2.8,4.3-4.6c0.6-2-0.3-3.7-2.7-4.5c-1.4-0.4-3.1-0.4-4.3,0.1c-0.8-1-2.2-2-3.6-2.4
			c-2.5-0.7-4.1,0.3-4.7,2.3c-0.5,1.8,0,3.6,1.2,6.2c1.3,2.9,1.3,5.5,0.4,7.5l-0.4,0.9l-6.3,21.8c-0.4,2.2-1.8,4.3-4.4,6.1
			c-2.4,1.6-3.8,2.8-4.3,4.6c-0.6,2,0.3,3.7,2.7,4.5c1.4,0.4,3.1,0.4,4.3-0.1c0.8,1,2.2,2,3.6,2.4
			C142.7,143.2,144.3,142.2,144.9,140.2z"/>
		<path id="XMLID_357_" class="st1" d="M416.5,66.2c-1.4,2.2-2.7,4-5,4.8c-2.6,0.8-5.5-0.2-6.8-4.1c-0.4-1.4-0.6-3-0.4-4.3
			c-0.9-0.9-1.7-2.3-2.2-3.7c-1.2-3.9,0.6-6.4,3.2-7.2c2.3-0.7,4.4,0,6.8,1c2.2,0.9,3.9,1,5.6,0.4l18.7-6l0,0l0.8-0.2c0,0,0,0,0.1,0
			c1.7-0.4,3-1.5,4.3-3.5c1.4-2.2,2.7-4,5-4.8c2.6-0.8,5.5,0.2,6.8,4.1c0.4,1.4,0.6,3,0.4,4.3c0.9,0.9,1.7,2.3,2.2,3.8
			c1.2,3.9-0.6,6.4-3.2,7.2c-2.3,0.7-4.4,0-6.8-1c-2.2-0.9-3.8-1-5.5-0.4c0,0,0,0-0.1,0l-0.8,0.3l0,0l-18.7,5.9
			C419.1,63.1,417.8,64.1,416.5,66.2z M410.9,67.8c1.5-0.5,2.6-1.7,3.9-3.8c1.5-2.3,3.3-3.6,5.2-3.9l18.8-5.9l0.8-0.3
			c1.8-0.8,4-0.8,6.5,0.2c2.3,1,3.9,1.4,5.4,0.9c1.7-0.5,2.5-2,1.9-4.1c-0.4-1.2-1.2-2.4-2.1-3.1c0.4-1,0.4-2.5,0-3.8
			c-0.7-2.1-2.2-2.8-3.9-2.3c-1.5,0.5-2.6,1.7-3.9,3.8c-1.5,2.3-3.3,3.6-5.2,4l-0.9,0.2l-18.8,6c-1.8,0.8-4,0.8-6.5-0.2
			c-2.3-1-3.9-1.4-5.4-0.9c-1.7,0.5-2.5,2-1.9,4.1c0.4,1.2,1.2,2.4,2.1,3.1c-0.4,1-0.4,2.5,0,3.7C407.7,67.6,409.2,68.3,410.9,67.8z
			"/>
		<path id="XMLID_358_" class="st1" d="M594.9,406.5c-5-3.6-9-6.8-10.3-12.2c-1.5-6.1,1.2-12.8,10.5-15.1c3.3-0.8,7.1-0.9,10.1-0.3
			c2.3-1.9,5.7-3.6,9-4.4c9.2-2.3,14.8,2.4,16.3,8.5c1.3,5.5-0.7,10.1-3.4,15.6c-2.5,5-2.9,8.9-1.7,12.9l11.1,44.3l0,0.1l0.4,2
			c0,0,0,0.1,0,0.1c0.8,4.1,2.9,7.2,7.5,10.5c5,3.6,9,6.8,10.3,12.2c1.5,6.1-1.3,12.8-10.5,15.1c-3.3,0.8-7.1,0.9-10,0.3
			c-2.3,1.9-5.7,3.6-9,4.4c-9.2,2.3-14.8-2.4-16.3-8.5c-1.3-5.4,0.7-10.1,3.4-15.6c2.5-5,2.9-8.8,1.7-12.8c0,0,0-0.1,0-0.1l-0.6-2
			l0-0.1l-10.9-44.4C601.6,413,599.5,409.8,594.9,406.5z M592,393.3c0.9,3.6,3.7,6.2,8.3,9.6c5.2,3.8,7.8,8.2,8.4,12.6l10.9,44.5
			l0.6,1.9c1.6,4.2,1.3,9.3-1.5,15.1c-2.6,5.1-3.8,8.8-2.9,12.4c1,4.1,4.2,6.2,9.3,5c2.9-0.7,5.8-2.5,7.5-4.5c2.4,1,5.8,1.2,8.7,0.5
			c5-1.3,6.9-4.7,5.9-8.8c-0.9-3.6-3.7-6.2-8.3-9.6c-5.2-3.8-7.8-8.2-8.4-12.6l-0.3-2L619,413c-1.5-4.2-1.3-9.3,1.5-15.1
			c2.6-5.1,3.8-8.8,2.9-12.4c-1-4.1-4.3-6.2-9.3-5c-2.9,0.7-5.9,2.5-7.5,4.5c-2.4-1-5.8-1.2-8.7-0.5
			C592.9,385.9,591,389.2,592,393.3z"/>
		<path id="XMLID_369_" class="st1" d="M904.3,605.7c1.7-2.3,3.1-4.2,5.7-4.9c2.8-0.7,6,0.5,7.1,4.8c0.4,1.6,0.5,3.3,0.2,4.7
			c0.9,1.1,1.7,2.6,2.1,4.2c1.1,4.3-1.1,6.9-3.9,7.6c-2.5,0.6-4.7-0.3-7.3-1.6c-2.4-1.2-4.2-1.3-6-0.7l-20.7,5.3l0,0l-0.9,0.2
			c0,0,0,0-0.1,0c-1.9,0.4-3.4,1.4-4.9,3.5c-1.7,2.3-3.1,4.2-5.7,4.9c-2.8,0.7-6-0.5-7.1-4.8c-0.4-1.6-0.4-3.3-0.2-4.7
			c-0.9-1.1-1.7-2.6-2.1-4.2c-1.1-4.3,1.1-6.9,3.9-7.6c2.5-0.6,4.7,0.3,7.3,1.6c2.3,1.1,4.1,1.3,6,0.8c0,0,0,0,0.1,0l0.9-0.3l0,0
			l20.7-5.2C901.3,608.8,902.7,607.8,904.3,605.7z M910.4,604.3c-1.7,0.4-2.9,1.7-4.5,3.9c-1.8,2.4-3.8,3.7-5.9,4l-20.8,5.2
			l-0.9,0.3c-2,0.7-4.3,0.6-7.1-0.7c-2.4-1.2-4.1-1.7-5.8-1.3c-1.9,0.5-2.9,2-2.3,4.4c0.3,1.3,1.2,2.7,2.1,3.5
			c-0.5,1.1-0.5,2.7-0.2,4.1c0.6,2.3,2.2,3.2,4.1,2.7c1.7-0.4,2.9-1.7,4.5-3.9c1.8-2.4,3.8-3.7,5.9-4l0.9-0.2l20.7-5.4
			c2-0.7,4.3-0.6,7.1,0.7c2.4,1.2,4.1,1.7,5.8,1.3c1.9-0.5,2.9-2,2.3-4.4c-0.3-1.3-1.2-2.7-2.1-3.5c0.5-1.1,0.5-2.7,0.2-4.1
			C913.9,604.7,912.3,603.8,910.4,604.3z"/>
		<path id="XMLID_57_" class="st1" d="M951.5,519c1.7-2.3,3.1-4.2,5.7-4.9c2.8-0.7,6,0.5,7.1,4.8c0.4,1.6,0.5,3.3,0.2,4.7
			c0.9,1.1,1.7,2.6,2.1,4.2c1.1,4.3-1.1,6.9-3.9,7.6c-2.5,0.6-4.7-0.3-7.3-1.6c-2.4-1.2-4.2-1.3-6-0.7l-20.7,5.3l0,0l-0.9,0.2
			c0,0,0,0-0.1,0c-1.9,0.4-3.4,1.4-4.9,3.5c-1.7,2.3-3.1,4.2-5.7,4.9c-2.8,0.7-6-0.5-7.1-4.8c-0.4-1.6-0.4-3.3-0.2-4.7
			c-0.9-1.1-1.7-2.6-2.1-4.2c-1.1-4.3,1.1-6.9,3.9-7.6c2.5-0.6,4.7,0.3,7.3,1.6c2.3,1.1,4.1,1.3,6,0.8c0,0,0,0,0.1,0l0.9-0.3l0,0
			l20.7-5.2C948.5,522.2,950,521.2,951.5,519z M957.7,517.6c-1.7,0.4-2.9,1.7-4.5,3.9c-1.8,2.4-3.8,3.7-5.9,4l-20.8,5.2l-0.9,0.3
			c-2,0.7-4.3,0.6-7.1-0.7c-2.4-1.2-4.1-1.7-5.8-1.3c-1.9,0.5-2.9,2-2.3,4.4c0.3,1.3,1.2,2.7,2.1,3.5c-0.5,1.1-0.5,2.7-0.2,4.1
			c0.6,2.3,2.2,3.2,4.1,2.7c1.7-0.4,2.9-1.7,4.5-3.9c1.8-2.4,3.8-3.7,5.9-4l0.9-0.2l20.7-5.4c2-0.7,4.3-0.6,7.1,0.7
			c2.4,1.2,4.1,1.7,5.8,1.3c1.9-0.5,2.9-2,2.3-4.4c-0.3-1.3-1.2-2.7-2.1-3.5c0.5-1.1,0.5-2.7,0.2-4.1
			C961.1,518,959.6,517.1,957.7,517.6z"/>
		<path id="XMLID_380_" class="st1" d="M1165.5,572.7c-1-4-1.7-7.3,0-10.6c1.8-3.7,6.1-6,11.8-3.2c2.1,1,4,2.6,5.2,4.2
			c2,0,4.4,0.6,6.5,1.6c5.6,2.8,6.5,7.5,4.6,11.3c-1.6,3.3-4.7,4.8-8.4,6.5c-3.4,1.5-5.3,3.3-6.4,5.8l-13.4,27.2l0,0.1l-0.6,1.2
			c0,0,0,0.1,0,0.1c-1.3,2.4-1.6,4.9-0.7,8.5c1,4,1.7,7.3,0,10.6c-1.8,3.7-6.1,6-11.8,3.2c-2-1-4-2.6-5.2-4.2c-2,0-4.4-0.6-6.5-1.6
			c-5.6-2.8-6.5-7.5-4.6-11.3c1.6-3.3,4.7-4.8,8.4-6.5c3.4-1.5,5.2-3.2,6.3-5.7c0,0,0-0.1,0-0.1l0.5-1.2l0-0.1l13.5-27.2
			C1166.1,578.8,1166.4,576.3,1165.5,572.7z M1169.6,564.7c-1.1,2.2-0.8,4.7,0.1,8.4c1,4.2,0.5,7.5-1.1,10l-13.5,27.2l-0.5,1.3
			c-1,2.8-3.3,5.3-7.2,7c-3.5,1.5-5.7,2.8-6.8,5c-1.2,2.5-0.5,4.9,2.6,6.5c1.8,0.9,4,1.3,5.7,0.9c0.8,1.5,2.4,3.1,4.2,4
			c3.1,1.5,5.5,0.6,6.7-1.9c1.1-2.2,0.8-4.7-0.1-8.4c-1-4.2-0.5-7.5,1.1-10l0.7-1.2l13.3-27.3c1-2.8,3.3-5.3,7.2-7
			c3.5-1.5,5.7-2.8,6.8-5c1.2-2.5,0.5-4.9-2.6-6.5c-1.8-0.9-4-1.2-5.7-0.9c-0.8-1.5-2.4-3.1-4.2-4
			C1173.2,561.3,1170.8,562.2,1169.6,564.7z"/>
		<path id="XMLID_391_" class="st1" d="M1638.4,280.5c-5.2,2.6-9.7,4.7-14.9,3.4c-5.8-1.4-10.3-6.7-8.2-15.5
			c0.8-3.2,2.3-6.4,4.2-8.7c-0.6-2.8-0.6-6.4,0.2-9.6c2.1-8.8,8.5-11.5,14.3-10.1c5.2,1.2,8.3,5,11.8,9.8c3.2,4.3,6.3,6.4,10.2,7.1
			l42.4,10l0.1,0l1.9,0.5c0,0,0.1,0,0.1,0c3.8,1.1,7.4,0.7,12.2-1.7c5.2-2.6,9.7-4.7,14.9-3.4c5.8,1.4,10.3,6.7,8.2,15.5
			c-0.8,3.2-2.3,6.4-4.2,8.6c0.6,2.8,0.6,6.4-0.2,9.6c-2.1,8.8-8.5,11.5-14.3,10.1c-5.2-1.2-8.3-5-11.8-9.8c-3.1-4.3-6.2-6.3-10.1-7
			c0,0-0.1,0-0.1,0l-1.9-0.4l-0.1,0l-42.4-10.2C1646.9,277.7,1643.2,278.1,1638.4,280.5z M1626,277.2c3.4,0.8,6.9-0.4,11.8-2.9
			c5.5-2.7,10.4-3,14.4-1.6l42.5,10.3l1.9,0.3c4.3,0.5,8.4,3,12.1,7.9c3.2,4.4,5.8,7,9.2,7.9c3.9,0.9,7.1-0.9,8.3-5.7
			c0.7-2.8,0.5-6-0.5-8.3c1.9-1.6,3.6-4.4,4.2-7.2c1.1-4.8-1-7.9-4.9-8.8c-3.4-0.8-6.9,0.4-11.8,2.9c-5.5,2.7-10.4,3-14.4,1.6
			l-1.9-0.6l-42.6-10c-4.2-0.5-8.4-3-12.1-7.9c-3.2-4.4-5.8-7-9.2-7.9c-3.9-0.9-7.1,0.9-8.3,5.7c-0.7,2.8-0.5,6.1,0.5,8.3
			c-1.9,1.6-3.6,4.4-4.2,7.2C1620.1,273.2,1622.1,276.3,1626,277.2z"/>
		<path id="XMLID_402_" class="st1" d="M1818.9,661.7c2.4,0.4,4.4,0.9,5.9,2.6c1.6,1.9,1.8,4.9-1.2,7.3c-1.1,0.9-2.4,1.6-3.6,1.9
			c-0.5,1.1-1.4,2.3-2.5,3.2c-3,2.4-5.8,1.7-7.4-0.2c-1.4-1.7-1.5-3.8-1.5-6.3c0-2.3-0.5-3.7-1.6-5l-11.7-14.2l0,0l-0.5-0.7
			c0,0,0,0,0,0c-1-1.3-2.3-2.1-4.5-2.5c-2.4-0.4-4.4-0.9-5.9-2.6c-1.6-2-1.8-4.9,1.2-7.3c1.1-0.9,2.4-1.6,3.6-1.8
			c0.5-1.1,1.4-2.3,2.5-3.2c3-2.4,5.8-1.7,7.4,0.2c1.4,1.7,1.5,3.8,1.5,6.3c0,2.2,0.5,3.7,1.6,4.9c0,0,0,0,0,0l0.6,0.6l0,0
			l11.7,14.2C1815.4,660.5,1816.7,661.3,1818.9,661.7z M1822.3,666c-1-1.2-2.4-1.6-4.7-2c-2.6-0.5-4.3-1.6-5.2-3.1l-11.7-14.3
			l-0.6-0.6c-1.3-1.3-2.1-3.2-2.1-5.8c0-2.3-0.1-3.8-1.1-5c-1.1-1.3-2.6-1.5-4.3-0.2c-0.9,0.8-1.7,1.9-1.9,2.9c-1,0-2.3,0.6-3.3,1.3
			c-1.6,1.4-1.7,2.9-0.6,4.2c1,1.2,2.4,1.6,4.7,2c2.6,0.5,4.3,1.6,5.3,3.1l0.5,0.7l11.8,14.2c1.3,1.3,2.1,3.2,2.1,5.8
			c0,2.3,0.2,3.8,1.1,5c1.1,1.3,2.6,1.5,4.3,0.2c0.9-0.8,1.7-1.9,1.9-2.9c1,0,2.3-0.6,3.2-1.3C1823.2,668.9,1823.3,667.3,1822.3,666
			z"/>
		<path id="XMLID_368_" class="st1" d="M1590.9,620.8c1.1,1,2,1.8,2.2,3.2c0.2,1.5-0.6,3.1-2.8,3.4c-0.8,0.1-1.7,0.1-2.4-0.1
			c-0.6,0.4-1.4,0.8-2.3,0.9c-2.3,0.4-3.5-0.9-3.8-2.4c-0.2-1.3,0.4-2.4,1.1-3.7c0.7-1.2,0.9-2.1,0.7-3.1l-1.8-10.9l0,0l-0.1-0.5
			c0,0,0,0,0,0c-0.1-1-0.6-1.8-1.6-2.7c-1.1-1-2-1.8-2.2-3.2c-0.2-1.5,0.6-3.1,2.8-3.4c0.8-0.1,1.7-0.1,2.4,0.1
			c0.6-0.4,1.4-0.8,2.3-0.9c2.3-0.4,3.5,0.9,3.8,2.4c0.2,1.3-0.4,2.4-1.1,3.7c-0.7,1.2-0.9,2.1-0.7,3c0,0,0,0,0,0l0.1,0.5l0,0
			l1.7,10.9C1589.4,619.1,1589.8,619.9,1590.9,620.8z M1591.3,624c-0.1-0.9-0.8-1.6-1.8-2.5c-1.2-1-1.7-2.1-1.8-3.2l-1.7-11
			l-0.1-0.5c-0.3-1-0.1-2.3,0.7-3.6c0.7-1.2,1.1-2,0.9-2.9c-0.2-1-0.9-1.6-2.1-1.4c-0.7,0.1-1.5,0.5-1.9,0.9
			c-0.6-0.3-1.4-0.4-2.1-0.3c-1.2,0.2-1.8,1-1.6,2c0.1,0.9,0.8,1.6,1.8,2.5c1.2,1,1.7,2.1,1.8,3.2l0,0.5l1.8,10.9
			c0.3,1,0.1,2.3-0.7,3.6c-0.7,1.2-1.1,2-0.9,2.9c0.2,1,0.9,1.6,2.1,1.4c0.7-0.1,1.5-0.5,1.9-0.9c0.6,0.3,1.4,0.4,2.1,0.3
			C1591,625.8,1591.5,625.1,1591.3,624z"/>
	</g>
</g>
</svg>
