<svg version="1" xmlns="http://www.w3.org/2000/svg" viewBox="-83 357 445 79"><linearGradient id="a" gradientUnits="userSpaceOnUse" x1="279" y1="359" x2="279" y2="436" gradientTransform="matrix(1 0 0 -1 0 795)"><stop offset="0" stop-color="#74cfeb"/><stop offset="0" stop-color="#93bcdb"/><stop offset="0" stop-color="#c091b9"/><stop offset="1" stop-color="#d86ba1"/><stop offset="1" stop-color="#e54992"/><stop offset="1" stop-color="#eb388d"/></linearGradient><path d="M291 359c2 0 3 1 5 3l3 6-3 11-3 12c-4 17-6 25-8 25l-4-2-2-3 1-1c-5 4-9 6-11 6s-4-1-6-3l-3-6 1-7a48 48 0 0 1 6-14l5-5 6-2c3 0 6 1 8 5l3-23c0-2 1-2 2-2zm-21 48l6-3 7-8v-3l-2-3-2-2-4 2-3 6-3 10v1h1z" fill="url(#a)"/><linearGradient id="b" gradientUnits="userSpaceOnUse" x1="314" y1="359" x2="314" y2="436" gradientTransform="matrix(1 0 0 -1 0 795)"><stop offset="0" stop-color="#74cfeb"/><stop offset="0" stop-color="#93bcdb"/><stop offset="0" stop-color="#c091b9"/><stop offset="1" stop-color="#d86ba1"/><stop offset="1" stop-color="#e54992"/><stop offset="1" stop-color="#eb388d"/></linearGradient><path d="M305 387c3-6 7-8 11-8s6 1 9 4c2 2 4 5 4 9l-3 11c-2 4-4 7-7 9-3 3-7 4-10 4s-5-1-7-3l-3-9c0-6 2-12 6-17zm11 15l3-10-1-6c-2 1-4 3-6 7l-3 10v6c3-1 5-4 7-7z" fill="url(#b)"/><linearGradient id="c" gradientUnits="userSpaceOnUse" x1="345" y1="359" x2="345" y2="436" gradientTransform="matrix(1 0 0 -1 0 795)"><stop offset="0" stop-color="#74cfeb"/><stop offset="0" stop-color="#93bcdb"/><stop offset="0" stop-color="#c091b9"/><stop offset="1" stop-color="#d86ba1"/><stop offset="1" stop-color="#e54992"/><stop offset="1" stop-color="#eb388d"/></linearGradient><path d="M361 394l1 3-2 5-3 10a87 87 0 0 1-5 17l-5 5-6 1c-3 1-6-1-8-3-3-2-4-4-4-5l1-4 2-2 2 1 2 3 2 2 3 1c1 0 3 0 3-2l3-5 2-8-8 3-6-3-3-6c0-2 0-5 2-8l4-9 6-8c3-2 5-3 8-3a7 7 0 0 1 7 5l2 9v1zm-20 12v1c2 0 4-1 7-4 3-2 6-5 7-8v-1l-1-6h-1c-3 0-5 2-8 7s-4 9-4 11z" fill="url(#c)"/><g><linearGradient id="d" gradientUnits="userSpaceOnUse" x1="108" y1="-634" x2="108" y2="-600" gradientTransform="matrix(1 0 0 -1 0 -216)"><stop offset="0" stop-color="#fdd6c1"/><stop offset="1" stop-color="#f7a4a6"/></linearGradient><path d="M127 403c3 11-8 4-19 7-10 4-16 15-19 4-2-6-1-12 1-17 3-6 7-10 12-11 5-2 11 0 16 4 5 3 8 7 9 13z" fill="url(#d)"/><linearGradient id="e" gradientUnits="userSpaceOnUse" x1="81" y1="-615" x2="81" y2="-597" gradientTransform="matrix(1 0 0 -1 0 -216)"><stop offset="0" stop-color="#fdd6c1"/><stop offset="1" stop-color="#f7a4a6"/></linearGradient><path d="M86 399c-3 1-8 0-10-5-3-5-2-10 1-12s8 0 10 5c3 4 2 10-1 12z" fill="url(#e)"/><linearGradient id="f" gradientUnits="userSpaceOnUse" x1="93" y1="-601" x2="93" y2="-583" gradientTransform="matrix(1 0 0 -1 0 -216)"><stop offset="0" stop-color="#fdd6c1"/><stop offset="1" stop-color="#f7a4a6"/></linearGradient><path d="M98 385c-3 2-8 0-10-5-3-5-2-10 1-12s8 0 10 5 2 9-1 12z" fill="url(#f)"/><linearGradient id="g" gradientUnits="userSpaceOnUse" x1="110" y1="-598" x2="110" y2="-578" gradientTransform="matrix(1 0 0 -1 0 -216)"><stop offset="0" stop-color="#fdd6c1"/><stop offset="1" stop-color="#f7a4a6"/></linearGradient><path d="M111 382c-4 1-7-3-7-9-1-6 1-10 5-10s7 3 7 9c1 5-2 10-5 10z" fill="url(#g)"/><linearGradient id="h" gradientUnits="userSpaceOnUse" x1="127" y1="-606" x2="127" y2="-586" gradientTransform="matrix(1 0 0 -1 0 -216)"><stop offset="0" stop-color="#fdd6c1"/><stop offset="1" stop-color="#f7a4a6"/></linearGradient><path d="M125 390c-4-1-6-6-5-11s4-10 8-9 6 5 5 11-5 9-8 9z" fill="url(#h)"/></g><g><linearGradient id="i" gradientUnits="userSpaceOnUse" x1="-56" y1="379" x2="-56" y2="436" gradientTransform="matrix(1 0 0 -1 0 795)"><stop offset="0" stop-color="#74cfeb"/><stop offset="0" stop-color="#93bcdb"/><stop offset="0" stop-color="#c091b9"/><stop offset="1" stop-color="#d86ba1"/><stop offset="1" stop-color="#e54992"/><stop offset="1" stop-color="#eb388d"/></linearGradient><path d="M-38 379l4 1 3 3-3 10c-1 6-4 11-7 16-4 5-6 7-8 7l-3-2-3-3-1-17-8 16c-2 4-4 6-6 6l-3-2-3-2-3-15-1-15c0-2 1-3 2-3l6 3 2 5 1 17 5-11 4-10 3-4 6 3 3 6v6l-1 7v4l4-7 3-9c1-7 3-10 4-10z" fill="url(#i)"/><linearGradient id="j" gradientUnits="userSpaceOnUse" x1="-14" y1="379" x2="-14" y2="436" gradientTransform="matrix(1 0 0 -1 0 795)"><stop offset="0" stop-color="#74cfeb"/><stop offset="0" stop-color="#93bcdb"/><stop offset="0" stop-color="#c091b9"/><stop offset="1" stop-color="#d86ba1"/><stop offset="1" stop-color="#e54992"/><stop offset="1" stop-color="#eb388d"/></linearGradient><path d="M1 396l1 2-1 4-1 4-1 3a20 20 0 0 1 0 3l-1 1v2l-1 1h-1l-3-2-2-5c-4 5-8 7-11 7-2 0-5-1-7-3l-4-7 3-10 9-12c4-3 7-5 11-5 2 0 4 1 7 4 2 2 4 4 4 6l-2 7zm-21 11c2 0 4-1 7-4 4-3 6-6 6-10l1-1-1-4c-2 0-4 1-6 4-3 2-5 5-6 8-2 2-2 5-2 6v1h1z" fill="url(#j)"/><linearGradient id="k" gradientUnits="userSpaceOnUse" x1="15" y1="379" x2="15" y2="436" gradientTransform="matrix(1 0 0 -1 0 795)"><stop offset="0" stop-color="#74cfeb"/><stop offset="0" stop-color="#93bcdb"/><stop offset="0" stop-color="#c091b9"/><stop offset="1" stop-color="#d86ba1"/><stop offset="1" stop-color="#e54992"/><stop offset="1" stop-color="#eb388d"/></linearGradient><path d="M21 362l3 6-1 10-2 12c-4 17-6 26-8 26l-4-3c-2-1-2-3-2-4l2-7c2-5 2-11 3-19l3-22c0-2 0-2 2-2l4 3z" fill="url(#k)"/><linearGradient id="l" gradientUnits="userSpaceOnUse" x1="44" y1="379" x2="44" y2="436" gradientTransform="matrix(1 0 0 -1 0 795)"><stop offset="0" stop-color="#74cfeb"/><stop offset="0" stop-color="#93bcdb"/><stop offset="0" stop-color="#c091b9"/><stop offset="1" stop-color="#d86ba1"/><stop offset="1" stop-color="#e54992"/><stop offset="1" stop-color="#eb388d"/></linearGradient><path d="M33 416c-2 0-3-1-5-3l-2-4 2-8a258 258 0 0 0 9-42c2 0 3 1 5 3l3 6-3 15-6 17 3-3 3-4 2-3 3-3 2-3 2-2 2-2 2-1 4 2 3 4-3 4-7 5-3 6 2 5 3 4 3 2 2 2c0 2-2 3-4 3-3 0-7-2-12-8l-2-1-8 9z" fill="url(#l)"/></g><g><linearGradient id="m" gradientUnits="userSpaceOnUse" x1="160" y1="379" x2="160" y2="416" gradientTransform="matrix(1 0 0 -1 0 795)"><stop offset="0" stop-color="#74cfeb"/><stop offset="0" stop-color="#93bcdb"/><stop offset="0" stop-color="#c091b9"/><stop offset="1" stop-color="#d86ba1"/><stop offset="1" stop-color="#e54992"/><stop offset="1" stop-color="#eb388d"/></linearGradient><path d="M175 396l1 2-1 4-1 4v3a20 20 0 0 1-1 3v1l-1 1v1l-1 1h-1l-2-2-3-5c-4 5-8 7-11 7l-7-3-3-7 3-10 8-12c4-3 7-5 11-5 2 0 4 1 7 4 2 2 4 4 4 6l-2 7zm-21 11l8-4c3-3 5-6 5-10l2-1c0-3-1-4-2-4-2 0-4 1-6 4-3 2-4 5-6 8l-2 6v1h1z" fill="url(#m)"/></g><g><linearGradient id="n" gradientUnits="userSpaceOnUse" x1="-2" y1="-634" x2="-2" y2="-600" gradientTransform="rotate(180 108 -108)"><stop offset="0" stop-color="#fdd6c1"/><stop offset="1" stop-color="#f7a4a6"/></linearGradient><path d="M209 390c4-4 10-6 16-5 5 2 9 6 11 12 2 5 3 11 2 17-3 11-9-1-20-4s-22 4-19-7c1-6 5-10 10-13z" fill="url(#n)"/><linearGradient id="o" gradientUnits="userSpaceOnUse" x1="-29" y1="-615" x2="-29" y2="-597" gradientTransform="rotate(180 108 -108)"><stop offset="0" stop-color="#fdd6c1"/><stop offset="1" stop-color="#f7a4a6"/></linearGradient><path d="M240 387c2-5 7-7 10-5s3 7 0 12c-2 4-7 6-10 4-3-1-3-7 0-11z" fill="url(#o)"/><linearGradient id="p" gradientUnits="userSpaceOnUse" x1="-17" y1="-601" x2="-17" y2="-583" gradientTransform="rotate(180 108 -108)"><stop offset="0" stop-color="#fdd6c1"/><stop offset="1" stop-color="#f7a4a6"/></linearGradient><path d="M228 373c2-5 7-7 10-5s4 7 1 12-8 7-11 5c-3-3-3-7 0-12z" fill="url(#p)"/><linearGradient id="q" gradientUnits="userSpaceOnUse" x1="-1" y1="-598" x2="-1" y2="-578" gradientTransform="rotate(180 108 -108)"><stop offset="0" stop-color="#fdd6c1"/><stop offset="1" stop-color="#f7a4a6"/></linearGradient><path d="M210 372c1-6 4-10 8-9s6 4 5 10-4 10-7 9c-4 0-6-5-6-10z" fill="url(#q)"/><linearGradient id="r" gradientUnits="userSpaceOnUse" x1="16" y1="-606" x2="16" y2="-586" gradientTransform="rotate(180 108 -108)"><stop offset="0" stop-color="#fdd6c1"/><stop offset="1" stop-color="#f7a4a6"/></linearGradient><path d="M194 381c-2-6 1-10 4-11s7 4 8 9c2 5-1 10-4 11-3 0-7-3-8-9z" fill="url(#r)"/></g><path fill="none" d="M-20 353h382"/></svg>